P2
# Created by Crouse and Stoll
122 136
255
2 2 0 0 2 9 11 13 15 12 8 5 2 -2 -6 -7 -6 -3 -1 4 7 8 14 20 22 24 20 15 7 3 2 -2 -4 -5 -6 -6 -5 -4 -2 -2 0 1 4 12 19 19 20 16 11 6 6 4 4 1 1 -2 -6 -6 -4 -5 -5 -1 1 3 3 4 5 5 6 5 5 1 -3 -17 -27 -26 -19 -6 -1 4 5 7 6 0 -1 -2 -2 -1 -3 -2 -2 -3 -2 -4 -7 -12 -15 -19 -14 -9 -5 -2 -1 -1 -2 -2 -3 -4 -4 -4 -3 -3 -4 -4 -3 0 -2 -5 -9 -11 -11 -11 
8 8 3 2 3 8 10 15 17 13 6 1 0 -5 -8 -8 -4 0 1 6 9 9 14 20 21 24 20 15 9 6 3 -1 -5 -5 -6 -7 -6 -5 -2 0 0 1 3 12 18 20 22 19 15 8 9 10 8 6 3 -1 -5 -3 0 -1 -2 0 4 6 7 7 8 6 4 2 1 -5 -13 -34 -46 -45 -33 -15 -7 5 8 12 11 3 1 0 0 1 0 0 -1 -1 -3 -6 -12 -19 -25 -29 -22 -15 -6 -2 0 0 -1 -1 -1 -1 0 0 0 0 -2 -2 -1 -2 -4 -7 -12 -12 -13 -14 
12 14 6 5 4 8 11 15 17 12 5 0 -2 -6 -8 -8 -4 0 1 8 10 10 15 18 22 25 20 17 10 7 5 -1 -5 -5 -6 -6 -7 -4 -1 0 0 1 3 10 19 20 23 21 16 9 12 13 11 8 4 0 -4 -1 3 1 -1 1 5 8 9 9 9 8 5 1 -3 -10 -18 -41 -57 -55 -45 -21 -8 6 10 15 14 8 5 3 2 3 1 0 -1 -3 -5 -7 -15 -26 -31 -35 -26 -19 -8 -1 0 -1 -3 -1 0 1 2 3 2 1 -2 -1 -2 -1 -5 -11 -14 -15 -14 -15 
10 11 5 4 3 7 9 13 15 9 4 0 -2 -6 -8 -8 -4 0 1 6 9 9 14 18 21 24 19 16 11 7 5 -2 -4 -5 -5 -5 -5 -4 -2 0 0 1 3 10 16 18 20 19 15 8 11 13 12 9 5 2 -1 0 4 1 -1 0 4 6 7 7 8 6 2 1 -2 -8 -16 -37 -50 -50 -38 -17 -6 6 10 13 13 6 3 1 1 1 1 0 -1 -2 -4 -7 -14 -22 -28 -30 -24 -17 -6 -2 0 0 -1 0 0 0 2 3 1 0 -2 -2 -2 -3 -5 -8 -12 -13 -13 -14 
7 7 2 3 2 6 8 11 13 9 3 0 -3 -7 -8 -8 -4 0 1 7 9 8 14 19 20 22 18 15 9 6 3 -2 -5 -6 -5 -4 -5 -4 -2 0 0 0 2 10 16 18 19 17 13 7 9 11 11 8 5 3 -1 1 3 1 -1 0 4 6 5 6 6 4 2 1 -1 -6 -12 -29 -41 -39 -31 -13 -3 7 10 12 11 4 1 0 0 0 0 -1 0 -2 -4 -7 -10 -19 -23 -26 -21 -14 -5 0 0 0 -1 -1 -1 -1 0 0 0 0 -2 -2 -2 -2 -4 -7 -11 -12 -11 -13 
8 8 3 2 1 6 7 12 13 8 1 -1 -4 -7 -9 -7 -5 0 1 7 9 9 13 18 21 23 18 14 9 6 4 -3 -5 -6 -6 -5 -6 -3 -2 0 0 0 3 10 18 20 20 18 14 8 11 13 12 9 7 4 0 2 5 1 -2 0 4 5 6 6 8 5 2 0 -1 -7 -14 -32 -45 -45 -34 -14 -5 7 11 14 12 5 2 1 1 1 0 0 0 -2 -4 -7 -13 -21 -25 -29 -22 -16 -6 -2 0 0 -1 0 0 0 0 1 1 0 -2 -2 -1 -2 -5 -8 -12 -12 -12 -14 
12 12 6 5 3 7 10 14 15 11 3 -1 -3 -7 -9 -8 -4 1 2 8 10 11 14 18 21 23 19 15 9 6 3 -2 -4 -5 -6 -6 -6 -4 -1 0 0 1 2 9 18 19 22 20 14 7 11 13 13 9 5 1 -1 2 7 3 0 1 6 8 9 8 9 8 4 0 -4 -11 -19 -42 -58 -56 -46 -21 -9 6 11 15 15 9 5 3 3 3 3 2 0 -2 -5 -7 -15 -26 -31 -36 -27 -19 -8 -2 0 -1 -2 -1 0 2 3 4 2 2 -2 -1 -2 -2 -6 -10 -13 -14 -14 -16 
15 17 8 7 5 10 12 16 17 13 4 0 -3 -7 -9 -9 -4 1 4 10 11 11 14 18 21 23 20 15 10 7 5 -1 -4 -5 -5 -5 -5 -5 -1 -1 0 0 2 10 17 18 21 19 15 6 10 12 12 7 3 -2 -2 2 8 5 1 2 7 10 10 11 12 9 5 1 -3 -13 -24 -49 -68 -67 -55 -28 -14 6 12 17 17 10 7 4 4 5 4 2 1 -1 -5 -8 -17 -29 -36 -41 -31 -22 -9 -1 0 -2 -2 0 1 3 4 5 3 3 0 -1 -1 -1 -7 -11 -14 -15 -15 -17 
31 32 18 14 12 22 25 32 36 32 20 10 6 1 -4 -5 -1 1 3 8 9 7 13 19 22 25 22 18 14 12 11 2 0 0 0 0 -3 -3 -2 -1 0 3 3 11 20 24 27 24 16 1 3 3 -1 -9 -18 -28 -28 -21 -8 0 0 6 13 16 17 18 19 15 9 7 -1 -17 -34 -70 -93 -91 -76 -45 -29 1 6 14 15 12 10 6 7 7 5 3 3 -1 -7 -12 -24 -40 -48 -52 -40 -28 -11 -2 -2 -2 -3 -2 2 7 9 9 7 7 2 1 0 -1 -6 -11 -16 -17 -16 -16 
61 62 40 33 31 42 48 60 71 66 49 34 32 22 11 6 3 2 0 0 -1 -1 7 13 20 24 27 26 27 27 25 16 13 16 15 11 5 0 -1 0 0 5 5 12 21 29 34 31 19 0 -8 -13 -23 -44 -59 -85 -83 -76 -43 -11 0 14 20 25 26 27 25 17 9 7 -5 -32 -55 -99 -124 -121 -107 -71 -50 -9 -6 0 8 15 14 11 11 11 3 0 0 -5 -15 -26 -42 -58 -66 -67 -49 -31 -9 1 0 -4 -4 0 8 17 19 16 14 13 13 11 7 1 -5 -12 -14 -13 -11 -10 
77 79 57 45 43 54 59 71 85 81 60 44 39 30 17 13 8 6 3 1 0 0 10 18 25 31 34 35 39 39 37 26 22 25 24 19 10 5 2 0 0 6 3 10 19 27 35 34 23 3 -4 -7 -21 -47 -67 -100 -101 -90 -50 -9 3 17 19 21 22 22 20 8 -4 -9 -26 -56 -81 -120 -144 -140 -126 -85 -58 -9 -5 0 7 19 21 16 12 9 0 -8 -9 -18 -33 -44 -63 -78 -83 -78 -58 -37 -10 3 0 -3 -4 1 12 23 27 23 20 18 14 13 8 0 -7 -14 -13 -10 -8 -6 
90 92 76 64 61 70 76 85 96 91 71 56 49 37 26 24 24 25 23 22 21 19 28 34 42 47 47 48 53 54 51 37 35 39 39 33 24 16 11 7 2 2 -4 -3 -1 5 18 23 16 4 3 3 -4 -34 -56 -93 -89 -75 -29 7 14 14 9 7 5 2 -2 -21 -45 -56 -73 -105 -123 -146 -166 -158 -144 -96 -67 -2 5 6 14 27 30 21 10 6 -10 -26 -31 -46 -63 -77 -98 -107 -105 -91 -70 -43 -16 4 1 -3 -4 5 15 28 36 33 26 21 13 10 3 -4 -13 -14 -7 -2 -1 0 
89 91 88 79 81 88 89 93 97 95 83 74 65 51 42 44 46 49 50 53 52 47 43 43 48 48 44 43 50 51 50 46 49 51 53 47 38 30 22 16 5 -2 -17 -31 -39 -36 -24 -12 -13 -18 -11 -5 -6 -33 -48 -72 -52 -34 9 34 32 19 3 0 -6 -17 -26 -55 -81 -96 -116 -144 -154 -154 -166 -161 -154 -111 -81 -5 7 10 19 36 41 26 12 4 -15 -34 -42 -64 -85 -100 -118 -117 -111 -89 -74 -50 -23 -1 -3 -7 -6 3 17 32 38 39 30 23 14 11 4 -9 -15 -11 5 11 12 10 
82 83 86 80 87 94 92 95 96 95 88 82 73 57 47 51 55 59 61 67 66 57 48 44 48 44 37 36 37 40 42 43 51 53 53 50 41 34 25 19 6 -4 -21 -42 -56 -56 -47 -34 -33 -39 -30 -23 -22 -42 -52 -64 -31 -12 25 43 39 23 4 0 -8 -18 -30 -57 -84 -99 -118 -145 -152 -147 -159 -158 -152 -116 -89 -14 7 9 22 37 41 28 11 7 -11 -30 -38 -61 -81 -95 -112 -110 -103 -84 -70 -50 -27 -7 -8 -11 -9 1 13 27 34 35 28 22 18 14 5 -10 -14 -8 7 14 14 14 
79 80 78 76 81 91 93 95 99 98 91 84 72 57 46 47 50 55 54 60 59 52 44 39 44 39 32 31 29 32 34 37 46 47 48 43 35 27 22 17 5 -3 -17 -38 -49 -48 -41 -32 -36 -47 -41 -36 -36 -54 -65 -72 -39 -19 18 38 34 26 15 10 1 -4 -15 -38 -63 -76 -94 -124 -138 -147 -164 -164 -157 -119 -91 -18 -1 6 21 36 36 24 14 9 -4 -21 -28 -47 -68 -81 -98 -102 -98 -85 -72 -52 -28 -8 -10 -12 -11 0 11 26 31 33 26 23 20 16 8 -7 -13 -9 3 9 10 10 
70 69 59 57 64 75 79 85 90 88 75 66 57 39 28 26 30 37 38 45 46 41 39 41 44 44 35 31 24 25 25 25 28 29 30 26 19 16 11 10 2 0 -8 -17 -18 -16 -9 -5 -15 -34 -32 -29 -31 -49 -59 -66 -41 -25 8 23 22 22 21 20 16 11 5 -9 -28 -38 -54 -83 -106 -138 -166 -165 -152 -109 -79 -14 4 14 24 32 29 20 14 11 2 -9 -13 -27 -43 -55 -74 -87 -91 -89 -74 -51 -26 -9 -8 -10 -12 -2 7 18 23 22 19 18 15 13 7 -4 -13 -15 -9 -7 -7 -6 
66 64 52 49 56 69 73 80 84 82 68 57 48 31 18 19 23 30 32 38 40 37 38 42 48 48 39 33 24 23 23 20 21 22 22 18 12 11 9 8 1 0 -4 -8 -5 -1 2 3 -6 -27 -26 -22 -27 -41 -54 -61 -42 -26 5 17 17 19 22 22 19 16 10 -1 -18 -26 -43 -71 -93 -135 -164 -163 -147 -102 -73 -11 6 15 25 30 25 18 13 11 4 -5 -11 -21 -36 -47 -66 -82 -90 -91 -75 -52 -26 -8 -7 -10 -11 -2 6 16 20 21 17 16 13 10 5 -4 -14 -17 -13 -12 -13 -13 
54 54 41 36 40 52 57 65 70 65 51 39 30 17 7 7 12 18 21 29 30 27 31 36 40 44 35 29 20 19 19 11 11 12 12 9 5 4 3 4 0 2 0 1 7 11 15 14 3 -14 -14 -12 -15 -28 -39 -47 -34 -21 4 13 10 15 21 25 23 20 16 9 -4 -11 -25 -51 -73 -118 -151 -150 -132 -86 -58 -4 8 20 24 27 21 15 12 12 5 -1 -2 -12 -24 -32 -52 -70 -80 -83 -68 -48 -23 -7 -5 -6 -9 -2 3 14 17 16 14 13 9 8 3 -3 -12 -18 -19 -16 -18 -17 
40 41 26 23 23 33 37 45 49 43 29 17 11 2 -5 -5 0 9 12 21 22 20 25 32 35 39 32 25 16 15 11 1 0 1 1 0 -1 -1 0 1 0 2 3 11 18 22 27 24 13 -5 0 1 0 -10 -20 -27 -22 -12 6 9 5 11 19 24 24 24 21 18 8 1 -8 -31 -51 -100 -133 -132 -112 -68 -43 2 14 23 25 22 17 11 9 9 7 4 1 -3 -11 -19 -36 -56 -68 -76 -60 -42 -20 -6 -4 -4 -6 -2 1 10 12 14 10 9 3 3 1 -3 -11 -18 -23 -23 -24 -24 
26 27 13 10 9 15 18 24 26 20 7 -2 -7 -11 -14 -13 -5 2 7 15 17 15 19 24 29 33 26 20 14 9 5 -4 -8 -8 -7 -6 -7 -5 -2 0 0 2 3 14 25 28 33 29 20 5 11 15 15 7 1 -5 -6 2 13 8 2 5 15 18 22 22 22 21 12 8 -1 -16 -33 -77 -108 -107 -86 -48 -24 8 18 27 27 18 13 8 8 10 9 7 5 2 -4 -8 -23 -44 -54 -64 -50 -35 -15 -5 -2 -2 -4 -3 1 7 10 11 9 5 0 -1 -1 -3 -10 -18 -24 -25 -25 -26 
18 21 4 -1 -10 -11 -9 -3 0 -4 -20 -32 -31 -27 -21 -18 -13 -7 -4 0 -3 -5 -3 1 5 10 11 8 12 9 5 -8 -12 -13 -11 -8 -9 -7 -3 -3 -1 2 6 19 30 35 41 38 33 24 30 34 34 25 17 5 -4 0 6 3 0 3 12 16 19 22 23 21 16 13 4 -3 -16 -53 -78 -75 -56 -22 -6 14 19 24 22 15 12 11 11 11 11 8 9 8 5 1 -11 -28 -38 -46 -33 -20 -6 3 3 1 0 2 4 10 14 16 12 8 1 1 0 -1 -7 -14 -19 -19 -19 -22 
24 28 9 0 -12 -18 -15 -9 -4 -7 -22 -34 -29 -21 -14 -14 -11 -13 -13 -21 -27 -28 -23 -17 -15 -8 0 3 17 16 12 -2 -7 -4 -2 -2 -2 -4 -4 -3 -2 3 6 19 29 35 42 41 37 32 32 32 28 14 4 -20 -35 -34 -19 -7 -1 3 7 11 16 21 22 21 17 14 8 0 -10 -36 -50 -45 -35 -10 0 8 9 8 9 10 13 11 8 8 8 7 7 5 5 2 -7 -18 -25 -27 -17 -8 1 9 7 3 2 5 9 15 19 19 14 11 4 3 2 1 -4 -8 -11 -10 -10 -10 
24 29 9 0 -15 -23 -21 -15 -9 -12 -26 -35 -30 -18 -10 -11 -13 -16 -19 -28 -38 -38 -34 -29 -28 -20 -8 -2 16 16 12 0 -5 -2 0 0 -2 -2 -4 -2 -1 2 5 18 27 32 41 41 37 34 34 33 26 11 0 -27 -45 -44 -30 -11 -2 1 7 11 16 20 21 21 17 15 9 4 -4 -25 -33 -30 -20 -3 0 5 2 1 3 6 12 12 10 9 7 6 8 8 7 3 -3 -13 -17 -17 -6 0 7 11 9 5 4 7 11 18 21 21 16 13 6 6 4 3 -1 -4 -6 -4 -3 -4 
18 20 6 0 -12 -16 -15 -10 -6 -7 -17 -28 -23 -14 -9 -9 -9 -13 -13 -21 -27 -27 -24 -21 -18 -12 -4 0 10 11 8 0 -3 -2 0 0 -1 -3 -3 -3 -1 2 5 15 22 25 32 32 29 26 25 23 18 9 0 -19 -32 -33 -23 -8 -3 1 5 8 12 16 18 17 15 13 10 4 -1 -18 -27 -24 -15 -2 0 6 2 2 2 5 7 6 6 7 6 5 6 8 5 3 -1 -9 -13 -13 -6 -1 3 8 5 2 2 4 6 12 14 13 10 7 3 2 1 1 -1 -3 -6 -4 -5 -4 
0 1 -2 -3 -5 -3 -3 -1 0 -3 -7 -10 -11 -9 -9 -8 -8 -4 -4 0 0 0 2 4 7 8 8 6 4 2 0 -4 -5 -6 -5 -5 -4 -3 -1 0 0 0 2 9 15 16 18 17 14 13 14 14 15 12 9 7 0 0 0 0 -2 0 2 3 4 4 5 6 7 6 6 4 0 -11 -17 -17 -9 0 2 5 7 8 7 2 1 0 0 0 1 1 3 3 3 2 0 -6 -9 -13 -8 -6 -4 -1 0 0 -1 -1 0 0 0 1 1 0 -1 -1 -2 0 -1 -4 -7 -7 -8 -10 
-3 -4 -6 -5 -5 -3 -2 0 -1 -4 -6 -10 -10 -11 -12 -10 -7 -3 0 2 5 5 8 11 13 14 11 7 1 0 -3 -6 -8 -9 -9 -8 -6 -4 -2 0 0 0 2 10 16 17 17 14 12 10 12 14 14 16 13 14 11 10 7 1 -1 -1 1 2 4 4 6 7 9 8 7 8 3 -8 -16 -15 -10 0 5 8 10 12 8 1 -1 -2 -1 0 0 2 2 2 4 4 2 -3 -7 -12 -11 -9 -5 -3 0 0 -1 -2 -3 -3 -2 -2 -1 -2 -4 -4 -3 -1 -3 -5 -10 -10 -11 -12 
-8 -8 -9 -6 -5 -2 0 0 -2 -5 -5 -7 -10 -13 -13 -14 -8 -2 0 6 10 10 16 19 20 22 15 10 1 -3 -4 -8 -10 -11 -11 -10 -9 -5 -2 0 0 0 2 10 18 17 17 13 12 10 13 13 17 18 19 23 17 17 11 1 -3 -4 0 0 0 1 4 6 8 7 10 10 6 -3 -14 -12 -5 4 8 9 13 15 10 1 -3 -4 -4 -2 -1 0 0 2 3 5 4 -1 -5 -12 -11 -10 -7 -5 -2 0 -2 -4 -4 -6 -6 -6 -5 -5 -8 -7 -6 -3 -4 -7 -11 -12 -12 -14 
-9 -11 -10 -7 -7 -3 -2 -1 -3 -7 -6 -7 -9 -12 -13 -12 -8 -3 0 6 9 10 14 18 19 20 15 11 2 -1 -2 -7 -10 -11 -10 -9 -8 -5 -2 0 0 0 2 10 16 17 16 13 11 10 12 14 16 20 22 24 17 15 10 1 -6 -4 -2 -1 -1 0 2 3 6 7 8 10 7 -1 -6 -6 0 8 10 10 12 14 8 -1 -4 -5 -6 -4 -2 0 0 1 2 4 4 0 -4 -10 -9 -9 -6 -4 -2 0 0 -3 -4 -6 -7 -5 -5 -6 -8 -8 -6 -3 -4 -6 -11 -10 -11 -13 
-9 -9 -8 -5 -6 -4 -2 -2 -4 -7 -6 -7 -8 -10 -10 -11 -7 -3 -2 4 6 7 11 14 15 16 12 8 1 -1 -3 -5 -8 -9 -8 -8 -6 -3 -1 0 0 0 1 8 14 15 13 13 10 10 12 13 15 16 19 20 13 10 7 0 -4 -4 -2 -2 -1 0 2 4 5 6 7 8 7 2 -1 -1 4 9 10 9 10 10 6 -1 -4 -4 -5 -4 -2 0 0 1 2 4 5 0 -3 -6 -6 -6 -4 -3 -1 0 -1 -2 -3 -5 -5 -5 -5 -5 -7 -6 -5 -2 -4 -5 -7 -8 -8 -10 
-7 -8 -8 -5 -6 -3 -1 -1 -3 -5 -5 -6 -7 -10 -12 -11 -7 -3 -2 4 7 7 12 15 16 17 12 9 3 0 -2 -5 -8 -9 -9 -7 -6 -3 -1 0 0 0 1 9 14 15 14 14 12 11 12 13 15 17 18 20 12 11 7 0 -4 -4 -3 -3 -2 0 1 2 4 5 7 9 5 1 -2 -1 1 8 9 9 10 11 6 0 -3 -4 -5 -5 -2 -1 0 0 1 3 3 0 -3 -7 -6 -6 -4 -2 -1 0 -1 -2 -3 -5 -5 -5 -5 -5 -7 -6 -5 -2 -4 -5 -8 -9 -8 -10 
-9 -8 -7 -6 -6 -2 0 0 -2 -4 -4 -5 -8 -9 -12 -12 -9 -4 -2 3 6 8 13 17 20 22 17 11 4 0 -1 -6 -8 -10 -8 -8 -7 -4 -2 0 0 0 2 12 17 18 18 17 14 13 15 15 17 20 19 20 12 11 6 -2 -5 -5 -3 -3 -1 0 1 2 5 6 7 10 6 0 -4 -4 2 8 10 10 11 13 7 -1 -4 -5 -6 -6 -2 -2 0 0 0 3 2 -1 -3 -9 -8 -7 -5 -2 0 0 0 -3 -4 -6 -7 -5 -5 -6 -8 -8 -6 -2 -4 -5 -10 -10 -11 -12 
-9 -8 -8 -7 -7 -4 -2 -2 -3 -6 -7 -9 -9 -12 -13 -13 -9 -5 -4 3 4 7 10 16 18 19 15 10 4 0 -1 -5 -9 -9 -10 -8 -6 -3 -2 0 0 0 2 11 19 19 18 17 16 14 16 17 20 19 21 21 11 11 4 -2 -6 -5 -4 -3 -2 0 2 3 5 6 7 9 8 2 -1 0 5 12 11 10 11 12 6 -2 -5 -5 -6 -6 -3 -1 -1 0 0 2 4 0 -3 -8 -7 -6 -4 -2 0 0 0 -2 -3 -6 -6 -6 -5 -6 -8 -8 -6 -2 -3 -5 -10 -9 -10 -13 
-14 -12 -11 -10 -12 -10 -11 -10 -12 -14 -14 -15 -15 -16 -14 -15 -11 -7 -6 0 2 3 7 8 11 10 10 7 1 -1 -3 -7 -11 -12 -12 -10 -8 -5 -1 -1 0 0 3 12 18 18 18 16 15 17 19 20 22 23 24 25 15 13 6 -2 -6 -6 -4 -4 -2 0 1 4 6 8 9 12 13 11 7 8 13 17 16 11 10 10 5 -3 -5 -5 -6 -5 -2 0 0 3 4 5 5 4 1 -1 -1 -2 -2 0 0 1 1 -2 -3 -5 -6 -4 -5 -6 -8 -7 -7 -1 -1 -3 -8 -7 -8 -11 
-16 -14 -15 -17 -23 -28 -29 -28 -31 -35 -36 -38 -36 -29 -21 -19 -14 -9 -8 -4 -5 -4 -4 -3 -1 0 0 0 -2 -3 -4 -9 -16 -17 -16 -13 -9 -6 -2 -3 -1 0 3 10 17 17 17 17 19 24 30 33 37 38 40 39 29 23 16 1 -3 -7 -4 -2 0 1 4 7 7 7 9 17 19 16 13 14 19 26 25 15 15 15 8 0 -1 -1 -2 -1 1 4 3 5 9 11 12 9 7 2 2 0 1 1 3 3 3 0 -1 -1 0 1 0 -2 -6 -6 -6 0 -2 -4 -8 -7 -9 -11 
-18 -16 -19 -24 -37 -51 -54 -57 -60 -61 -65 -68 -62 -45 -27 -21 -16 -11 -9 -7 -14 -19 -25 -25 -25 -23 -17 -16 -3 -6 -10 -15 -19 -20 -18 -14 -9 -6 -3 -3 -1 0 0 7 12 11 15 16 21 29 43 49 56 58 59 55 42 39 30 10 1 -3 -3 0 2 2 5 8 6 6 8 19 23 22 20 21 28 32 32 20 20 20 13 4 5 6 5 4 9 11 10 13 16 19 21 15 12 8 7 7 5 4 4 6 5 4 3 5 8 11 7 3 -3 -2 -1 0 -1 -2 -4 -4 -5 -7 
-23 -19 -23 -31 -54 -78 -85 -89 -93 -92 -99 -102 -92 -64 -35 -25 -17 -12 -10 -14 -27 -36 -51 -56 -56 -53 -40 -37 -12 -12 -16 -24 -27 -25 -20 -14 -10 -6 -4 -4 -2 -1 -1 4 6 4 10 16 21 37 59 68 74 77 79 75 58 58 46 19 7 -1 0 2 6 7 9 13 10 8 9 24 31 32 29 31 38 42 39 25 24 23 18 12 14 16 14 14 19 23 21 24 30 34 32 25 22 16 16 13 11 8 8 7 9 8 9 14 18 25 19 12 0 1 1 0 0 -1 -2 0 -3 -4 
-20 -13 -20 -32 -59 -90 -96 -102 -104 -105 -111 -114 -103 -70 -34 -22 -15 -11 -11 -19 -36 -46 -67 -75 -74 -73 -57 -47 -14 -14 -16 -23 -25 -25 -19 -12 -6 -4 -2 -2 -2 -4 -4 0 0 -1 4 11 19 37 60 72 79 77 80 73 59 60 50 24 13 0 2 5 9 9 13 16 11 8 8 21 30 32 29 32 37 42 39 22 23 22 19 16 19 23 21 17 24 29 26 28 35 37 35 27 24 19 18 17 14 12 11 9 10 12 15 22 27 33 28 18 6 5 5 2 2 1 2 4 1 0 
-14 -8 -18 -30 -60 -92 -101 -106 -107 -106 -114 -119 -104 -69 -30 -18 -14 -13 -13 -27 -47 -59 -82 -90 -91 -88 -67 -55 -16 -13 -15 -21 -23 -21 -15 -7 -4 -3 -2 -3 -2 -3 -3 -2 -4 -4 1 10 18 35 57 67 71 68 70 59 45 47 42 23 13 3 5 8 12 14 19 20 16 11 11 22 29 33 32 34 37 38 34 18 18 15 15 18 22 25 23 21 29 33 32 33 38 41 37 30 27 25 23 22 18 15 11 8 12 14 18 27 32 39 32 23 11 11 7 5 4 3 5 8 6 5 
0 8 -7 -23 -53 -87 -95 -100 -96 -92 -103 -108 -91 -54 -17 -7 -8 -15 -17 -39 -64 -76 -99 -110 -112 -108 -80 -63 -16 -11 -11 -15 -14 -11 -4 1 2 0 -2 -3 -1 -3 -6 -7 -11 -11 -4 4 11 27 44 48 49 42 41 21 12 15 18 16 15 8 13 15 21 21 24 25 21 17 16 21 27 27 31 34 33 29 24 8 1 -2 4 18 27 30 30 28 32 37 35 37 41 42 37 31 30 29 30 28 23 17 13 6 9 15 22 32 39 44 36 29 19 19 16 10 8 9 13 17 15 14 
12 17 1 -14 -43 -77 -85 -89 -81 -75 -84 -88 -71 -34 -1 5 0 -13 -21 -49 -75 -87 -110 -124 -128 -124 -94 -71 -20 -10 -10 -7 -3 1 6 11 9 4 0 -2 0 -3 -6 -15 -23 -21 -15 -4 1 14 22 22 18 9 6 -13 -18 -18 -7 7 16 14 20 21 27 28 28 30 26 25 22 22 26 30 40 40 34 20 9 -8 -16 -21 -7 15 26 31 35 32 36 38 39 42 45 43 41 35 38 39 39 35 27 18 10 5 7 15 24 35 41 44 39 34 27 28 25 16 15 17 24 27 26 28 
16 23 4 -12 -43 -77 -83 -87 -77 -70 -80 -87 -70 -32 2 8 0 -14 -22 -55 -82 -93 -116 -131 -133 -130 -97 -73 -19 -8 -7 -4 0 2 8 11 12 4 -1 -2 -1 -3 -4 -15 -23 -22 -15 -4 0 14 19 20 14 3 0 -24 -29 -28 -14 5 15 16 20 23 28 29 30 31 28 26 20 21 24 28 40 40 32 19 9 -10 -21 -26 -10 14 26 31 36 33 36 39 39 41 42 41 39 33 37 40 41 36 29 21 12 6 9 17 27 38 45 47 41 38 29 30 26 17 16 18 25 29 29 30 
13 20 1 -15 -49 -85 -92 -93 -86 -78 -90 -97 -78 -37 -4 1 -4 -20 -28 -60 -87 -100 -120 -133 -135 -131 -97 -71 -17 -7 -6 -7 -5 0 5 10 8 1 -3 -5 -2 -2 -3 -10 -16 -14 -6 2 8 23 30 29 24 11 7 -20 -30 -31 -19 1 12 13 19 21 28 31 30 33 31 29 27 27 31 34 45 48 41 28 16 -5 -18 -24 -12 13 25 30 34 31 36 38 39 43 47 45 42 38 39 43 44 39 32 22 14 6 9 17 28 39 44 46 41 35 27 28 24 17 16 18 24 27 27 28 
8 15 -4 -22 -55 -91 -96 -99 -92 -86 -99 -105 -88 -47 -11 -5 -12 -23 -31 -61 -87 -97 -115 -126 -127 -121 -88 -66 -13 -4 -5 -8 -9 -7 0 4 2 0 -4 -6 -2 -2 -2 -2 -5 -4 5 12 20 35 43 43 40 26 20 -8 -23 -24 -15 -1 9 8 13 16 23 26 30 32 30 27 27 30 34 39 49 52 47 37 26 1 -11 -17 -9 11 23 28 30 28 33 36 37 41 45 44 42 38 38 42 43 39 32 25 17 8 12 18 25 35 41 43 37 31 22 22 20 15 13 14 18 22 23 22 
5 12 -7 -23 -54 -86 -92 -93 -85 -83 -95 -103 -85 -49 -16 -10 -16 -26 -33 -58 -82 -90 -106 -112 -113 -109 -77 -57 -9 -3 -5 -10 -12 -9 -3 1 1 -2 -6 -6 -2 -2 0 2 2 4 13 19 24 38 45 46 42 31 25 -3 -21 -22 -16 -2 5 5 12 16 23 25 28 31 31 29 29 33 36 37 44 47 44 39 28 5 -7 -14 -6 9 19 24 25 25 29 32 34 38 42 42 40 34 34 37 39 35 29 22 15 9 12 17 22 32 35 39 32 26 17 18 16 13 12 12 15 18 18 18 
11 17 -4 -21 -49 -74 -74 -72 -61 -60 -74 -82 -67 -37 -12 -12 -20 -33 -41 -67 -87 -90 -95 -97 -98 -90 -61 -43 0 5 3 -5 -10 -7 -3 -1 -1 -6 -10 -9 -3 0 6 15 20 24 33 34 36 44 40 39 29 14 6 -27 -52 -56 -46 -19 -3 3 9 14 21 28 32 38 39 38 38 40 39 33 40 46 42 37 25 1 -13 -21 -13 0 10 16 19 18 21 26 28 33 39 38 36 30 29 33 36 34 30 24 16 8 11 14 19 25 28 28 24 22 14 15 15 13 12 10 10 13 12 14 
21 28 1 -19 -43 -62 -62 -53 -38 -36 -54 -65 -48 -24 -10 -13 -29 -45 -56 -87 -102 -102 -92 -89 -88 -77 -46 -28 10 15 12 1 -7 -4 0 -1 -4 -9 -13 -14 -4 5 15 29 40 49 57 56 55 56 45 33 18 -2 -17 -65 -99 -107 -91 -45 -18 0 8 14 24 31 37 43 48 51 51 48 40 30 40 46 43 38 27 -1 -23 -31 -26 -8 4 9 13 14 15 18 23 31 35 33 31 26 26 30 38 37 34 29 20 10 11 14 19 23 25 22 19 17 14 15 14 16 12 10 7 9 10 12 
31 38 8 -13 -36 -54 -50 -42 -22 -20 -40 -51 -36 -14 -4 -9 -26 -48 -59 -93 -109 -106 -94 -90 -89 -76 -44 -24 15 20 17 6 -1 1 4 3 -1 -7 -12 -14 -4 6 16 31 42 52 61 59 58 55 36 23 3 -17 -36 -88 -124 -133 -111 -53 -20 2 10 16 27 37 41 46 51 54 53 46 37 24 33 41 37 31 19 -4 -30 -40 -32 -10 4 10 15 14 13 16 22 30 34 30 26 21 22 28 36 36 35 30 21 10 11 14 21 26 26 21 19 18 17 18 17 18 14 11 9 10 14 15 
37 41 12 -4 -23 -37 -35 -24 -5 -2 -20 -31 -16 0 6 1 -19 -40 -53 -85 -100 -97 -86 -84 -84 -73 -44 -23 12 20 17 10 6 10 10 8 2 -4 -10 -11 -2 6 15 24 32 41 48 46 41 37 16 3 -16 -38 -54 -104 -130 -136 -112 -50 -17 4 12 17 27 35 38 42 46 50 48 38 28 17 28 33 28 17 7 -13 -38 -46 -34 -10 2 9 15 14 13 15 19 27 28 25 23 18 19 27 34 35 32 27 17 7 9 11 19 24 24 20 19 19 20 20 20 19 15 12 12 13 17 20 
25 28 7 -1 -8 -15 -10 -3 10 14 5 0 10 17 13 5 -12 -31 -42 -68 -75 -71 -59 -57 -58 -50 -29 -15 6 11 11 12 10 12 11 6 2 -3 -7 -8 0 5 12 17 23 30 31 26 22 14 -8 -22 -40 -56 -66 -99 -115 -121 -100 -48 -18 4 12 15 23 28 30 36 44 49 50 39 31 21 34 35 27 11 2 -21 -42 -47 -34 -15 -5 3 8 8 6 10 15 23 24 22 24 22 22 27 31 29 24 17 10 2 4 5 10 11 10 6 6 10 17 16 15 14 13 12 11 11 16 18 
19 21 4 0 -4 -4 0 5 17 21 14 9 15 18 11 3 -11 -26 -35 -55 -60 -53 -40 -37 -36 -30 -17 -6 6 10 10 9 8 10 8 5 0 -3 -7 -6 0 5 13 18 25 29 31 24 19 10 -10 -24 -39 -50 -59 -85 -98 -104 -89 -44 -18 2 8 12 17 24 25 30 39 43 44 35 26 18 26 28 22 9 1 -17 -34 -40 -30 -15 -7 -2 2 4 2 6 11 16 18 16 17 16 17 20 23 20 17 12 8 1 3 2 6 7 4 -1 1 5 10 11 11 12 10 9 7 6 10 13 
13 14 2 0 2 6 12 16 26 28 23 21 24 20 7 1 -10 -19 -25 -37 -37 -29 -15 -10 -10 -7 0 3 6 8 7 6 4 5 4 0 -2 -4 -6 -5 0 5 10 16 24 30 27 19 15 3 -14 -25 -38 -44 -51 -68 -78 -82 -72 -39 -18 0 6 8 12 18 19 24 32 36 37 29 21 10 13 14 9 3 -1 -14 -27 -29 -21 -15 -11 -6 0 0 -2 0 4 9 13 9 11 10 9 8 12 10 8 6 2 0 0 0 1 -1 -3 -8 -6 -2 4 4 5 7 5 3 1 0 1 4 
16 15 4 1 6 12 17 23 33 34 29 27 30 23 10 4 -8 -19 -24 -35 -32 -26 -10 -6 -7 -3 2 6 6 9 8 8 5 6 5 1 -2 -4 -5 -5 0 5 11 16 22 27 26 19 12 2 -18 -28 -42 -49 -57 -72 -81 -86 -74 -39 -18 0 7 8 12 17 18 21 29 33 35 26 18 7 10 10 7 0 -4 -15 -28 -30 -24 -16 -12 -7 -1 -1 -3 -1 2 7 9 7 8 6 6 7 11 11 8 6 2 0 0 0 0 -1 -4 -10 -7 -2 3 4 5 7 6 4 1 -1 0 5 
18 18 4 2 7 15 20 27 37 39 34 34 35 28 14 5 -8 -21 -28 -42 -39 -30 -13 -9 -10 -5 0 8 8 12 12 10 8 8 8 3 0 -3 -5 -7 0 6 13 17 22 28 27 19 13 2 -21 -33 -48 -56 -65 -83 -93 -99 -85 -44 -20 0 5 8 12 16 17 22 31 36 37 29 19 12 19 20 13 3 -4 -19 -33 -36 -28 -19 -13 -8 -3 -3 -3 -4 0 7 8 6 7 10 9 13 17 15 11 7 3 0 0 0 0 -2 -6 -11 -8 -2 4 5 6 8 7 6 3 0 4 8 
23 24 9 2 2 5 11 20 36 37 30 25 31 27 12 5 -14 -30 -40 -60 -61 -51 -30 -23 -23 -16 -3 6 16 18 18 14 10 13 11 4 0 -4 -9 -8 0 7 17 25 34 41 43 34 28 18 -9 -25 -45 -57 -70 -102 -121 -129 -111 -57 -26 0 2 6 12 19 21 26 36 41 44 35 26 19 31 35 24 11 2 -17 -39 -46 -37 -22 -15 -9 -2 -2 -5 -3 1 9 10 9 9 13 14 20 24 22 19 15 8 2 4 2 5 3 0 -9 -5 0 7 7 7 11 10 8 5 5 7 13 
29 29 12 5 5 10 17 27 43 46 38 34 39 35 19 7 -12 -33 -44 -66 -65 -54 -29 -22 -21 -14 0 10 21 26 24 19 14 16 15 8 1 -2 -8 -9 -1 8 17 26 36 44 46 38 33 22 -8 -26 -48 -63 -78 -115 -138 -149 -126 -65 -29 -2 0 0 8 16 17 22 31 39 39 31 21 20 36 40 30 14 3 -18 -43 -50 -44 -26 -17 -10 -6 -6 -9 -10 -5 3 4 0 4 9 14 23 28 27 22 18 10 3 4 3 6 2 -1 -10 -5 -1 6 7 8 10 12 10 7 6 11 15 
28 27 15 7 13 22 28 39 57 58 53 51 54 45 24 10 -11 -32 -43 -63 -62 -48 -22 -14 -13 -6 5 15 22 25 25 23 17 19 16 9 3 -2 -7 -10 -1 9 18 25 33 41 40 32 27 15 -18 -39 -60 -74 -89 -124 -144 -154 -133 -69 -31 -2 -1 0 5 12 14 17 28 36 38 28 21 23 41 44 31 11 0 -23 -48 -58 -49 -32 -22 -14 -7 -9 -13 -12 -8 0 0 -2 2 10 16 27 31 28 22 16 8 2 2 1 3 -1 -6 -16 -11 -5 5 6 8 12 12 11 10 8 13 18 
22 22 13 10 18 30 37 47 61 63 62 62 63 52 27 14 -6 -25 -35 -51 -47 -34 -8 -1 -1 2 10 17 18 23 23 22 19 21 18 9 4 -2 -6 -7 0 7 15 19 25 31 28 22 16 6 -28 -46 -66 -78 -88 -116 -129 -139 -123 -64 -29 -5 -4 -3 0 6 5 9 22 28 32 22 19 25 45 47 32 11 -2 -23 -46 -56 -49 -32 -24 -18 -11 -11 -17 -16 -12 -6 -4 -7 0 11 18 28 29 26 17 12 7 1 2 0 0 -7 -13 -21 -16 -8 3 5 5 10 10 13 11 9 14 18 
17 18 11 5 8 15 19 26 38 38 36 37 39 33 17 6 -9 -25 -33 -49 -46 -35 -13 -8 -6 -1 8 16 20 25 22 18 14 15 14 8 3 0 -4 -6 0 6 14 19 26 32 32 25 24 19 -5 -20 -36 -47 -58 -86 -105 -116 -103 -54 -25 -6 -8 -8 -5 0 1 5 11 19 21 19 14 27 46 49 38 20 7 -12 -33 -41 -40 -27 -18 -13 -12 -13 -17 -16 -11 -8 -5 -7 -1 8 16 26 28 24 18 14 7 3 4 1 1 -2 -6 -15 -10 -7 1 1 2 6 8 10 8 9 11 16 
5 7 1 -3 0 2 7 14 20 19 18 18 20 18 7 -1 -11 -23 -28 -40 -36 -28 -10 -3 -4 1 8 12 15 15 14 9 6 8 5 1 -1 -2 -6 -5 0 4 10 20 26 31 31 25 23 22 3 -7 -19 -25 -32 -54 -72 -81 -75 -41 -21 -7 -8 -9 -6 -1 1 4 12 18 22 22 22 31 43 46 39 25 14 -4 -20 -27 -28 -22 -15 -12 -11 -11 -13 -11 -8 -4 0 0 5 13 18 23 24 19 14 8 5 3 3 0 0 -5 -9 -14 -11 -9 -2 -2 0 4 6 6 4 3 5 8 
-10 -10 -9 -10 -8 -2 0 2 3 1 1 1 1 0 -6 -9 -13 -16 -15 -15 -9 -3 8 12 11 14 14 12 4 3 2 0 -5 -5 -8 -7 -6 -6 -4 -5 0 3 7 16 24 26 25 19 18 18 10 4 1 3 2 -2 -15 -21 -26 -20 -15 -9 -7 -8 -6 -1 -1 3 9 13 18 22 23 24 30 30 30 25 19 5 -1 -4 -9 -14 -14 -11 -11 -9 -8 -6 -3 0 1 3 6 10 10 11 9 6 4 0 1 2 0 -2 -5 -10 -12 -13 -12 -10 -8 -8 -6 0 0 0 -4 -6 -4 -4 
-18 -19 -16 -12 -7 -1 1 1 1 0 1 1 0 -3 -10 -14 -12 -11 -10 -5 3 6 17 22 24 25 20 15 5 0 0 -4 -8 -9 -12 -11 -10 -6 -4 -2 0 2 7 17 25 25 22 17 15 15 11 8 9 12 12 13 2 -1 -12 -15 -14 -10 -10 -11 -9 -6 -3 2 7 11 16 21 24 24 27 28 28 25 20 8 5 3 -3 -13 -16 -15 -15 -12 -9 -7 -4 -1 2 5 8 10 9 7 5 1 0 -2 0 1 0 -5 -8 -13 -16 -18 -15 -14 -13 -12 -10 -1 -1 -2 -7 -10 -9 -9 
-17 -19 -13 -9 -4 2 5 5 4 2 6 7 5 -2 -9 -12 -11 -9 -8 -1 5 9 21 28 28 30 23 17 4 0 0 -4 -8 -8 -11 -10 -9 -4 -2 -2 0 1 6 15 22 22 20 15 14 13 9 5 6 11 12 13 5 0 -10 -13 -13 -11 -11 -12 -10 -8 -6 -1 4 7 12 17 19 22 24 26 25 23 19 7 5 5 -2 -13 -16 -15 -15 -14 -12 -9 -7 -4 0 2 6 8 7 4 3 0 -1 -2 0 0 -1 -5 -8 -15 -18 -19 -17 -14 -13 -13 -10 -1 -1 -3 -7 -10 -9 -9 
-16 -20 -14 -4 11 26 29 30 29 30 39 44 39 24 6 1 -3 -3 -2 2 10 18 28 32 30 28 19 11 -7 -9 -6 -2 0 -2 -4 -7 -7 -5 -4 -1 0 2 7 6 6 6 -1 -6 -10 -21 -33 -41 -42 -31 -28 -12 -6 -11 -20 -19 -15 -4 -2 -2 -3 -1 0 6 16 21 26 27 24 22 24 23 16 2 0 -11 -12 -11 -13 -17 -22 -19 -14 -11 -9 -5 -1 3 6 7 14 16 16 11 7 2 -3 -6 -4 -2 -3 -8 -14 -22 -28 -30 -24 -18 -7 -7 -4 0 1 0 -4 -7 -6 -5 
-8 -13 -9 2 24 39 41 42 43 46 58 65 60 41 20 13 7 3 2 4 14 19 26 25 21 17 7 1 -18 -15 -11 0 7 5 3 -2 -2 -1 0 0 0 1 1 -7 -11 -11 -23 -30 -36 -50 -66 -75 -78 -65 -58 -35 -16 -17 -20 -15 -7 3 8 8 8 6 4 11 21 26 30 26 21 14 17 11 1 -16 -20 -27 -28 -23 -16 -14 -18 -14 -5 -3 0 1 3 8 10 11 16 20 19 11 5 0 -5 -11 -10 -8 -7 -10 -14 -20 -24 -28 -22 -11 0 1 3 1 5 4 2 -3 0 2 
-2 -8 -4 8 28 43 43 41 43 48 62 68 64 46 30 26 18 13 12 12 19 19 16 9 3 -2 -13 -15 -32 -26 -20 0 12 10 6 3 2 0 0 2 2 0 -3 -22 -32 -34 -48 -53 -59 -76 -89 -98 -99 -86 -76 -43 -10 -8 -7 -1 3 15 22 22 19 17 11 18 26 32 31 23 16 5 4 -4 -15 -37 -39 -41 -36 -28 -12 -3 -9 -5 3 8 10 13 16 19 19 18 21 22 19 10 3 -2 -8 -16 -15 -14 -12 -11 -10 -14 -18 -21 -13 -1 11 12 13 5 7 6 8 4 4 9 
28 22 18 28 41 43 37 31 35 45 55 61 58 52 50 53 48 43 39 29 20 7 -22 -44 -51 -63 -65 -60 -56 -44 -30 0 25 24 23 22 18 14 11 11 6 -6 -21 -61 -85 -89 -101 -99 -106 -125 -130 -132 -131 -122 -109 -67 -2 13 34 36 37 46 57 58 53 44 33 32 30 29 18 -4 -17 -46 -59 -71 -84 -97 -88 -68 -50 -33 4 30 25 26 41 42 44 43 43 40 34 29 19 9 3 -7 -12 -15 -16 -22 -22 -25 -18 -7 3 14 15 15 21 32 43 42 38 14 10 10 23 21 22 28 
57 53 46 48 49 39 31 24 31 45 49 49 51 55 64 72 63 53 51 29 9 -10 -49 -79 -86 -97 -90 -76 -52 -33 -22 12 40 41 43 43 37 25 19 15 6 -8 -30 -79 -111 -116 -121 -112 -116 -130 -128 -127 -128 -128 -121 -90 -18 3 38 52 55 58 65 64 58 46 30 23 11 4 -10 -41 -52 -74 -84 -96 -110 -119 -108 -74 -54 -40 5 47 47 46 57 55 52 47 45 35 24 13 0 -8 -9 -15 -14 -14 -13 -15 -20 -25 -16 -1 19 37 43 43 46 52 58 56 49 15 12 15 37 38 39 45 
64 63 54 54 52 40 30 23 31 44 49 48 50 57 69 75 68 57 52 28 5 -13 -55 -85 -92 -103 -93 -76 -45 -26 -13 18 45 47 50 49 42 30 20 17 6 -9 -33 -84 -117 -121 -126 -112 -112 -125 -122 -119 -121 -125 -120 -96 -26 -5 35 54 59 59 60 60 52 38 26 15 -1 -9 -25 -56 -66 -78 -85 -95 -111 -120 -108 -71 -54 -42 4 48 50 50 59 54 49 42 38 28 15 4 -9 -15 -13 -14 -13 -12 -10 -12 -17 -23 -15 2 23 42 49 51 50 55 61 58 50 15 12 17 41 44 46 52 
49 48 40 38 31 15 5 -3 3 16 18 17 22 35 54 62 56 47 42 20 -4 -23 -67 -97 -103 -112 -100 -84 -51 -33 -22 9 33 35 38 40 34 23 17 13 4 -8 -30 -75 -106 -111 -114 -102 -102 -109 -103 -101 -99 -101 -95 -72 -11 11 43 54 55 54 60 60 55 42 31 23 10 4 -13 -37 -44 -59 -67 -76 -91 -99 -91 -64 -47 -36 6 47 48 48 58 57 55 50 46 38 27 20 6 -2 -1 -6 -6 -5 -5 -8 -14 -21 -11 4 22 42 48 51 51 54 57 55 48 15 13 17 38 40 40 46 
37 36 27 29 24 9 0 -8 -3 7 12 13 18 29 46 57 52 45 40 22 -1 -18 -66 -95 -101 -111 -102 -88 -61 -43 -32 0 25 26 29 31 28 18 13 12 4 -8 -27 -73 -102 -107 -114 -103 -105 -115 -108 -105 -102 -99 -90 -55 6 26 52 54 53 54 62 63 59 49 38 33 24 18 4 -19 -27 -50 -61 -71 -84 -94 -86 -63 -45 -33 9 45 45 48 58 57 60 56 54 48 42 33 21 8 5 -2 -5 -7 -7 -11 -16 -21 -14 1 17 36 40 43 46 50 53 53 46 17 13 15 34 34 33 39 
26 21 18 26 28 18 9 0 2 15 25 31 32 38 50 58 53 46 45 28 8 -8 -51 -81 -89 -102 -99 -88 -69 -53 -40 -2 25 24 26 27 24 18 13 12 5 -8 -27 -74 -106 -111 -122 -115 -117 -130 -125 -125 -121 -110 -97 -51 16 37 54 52 51 52 62 63 57 46 35 33 29 25 13 -7 -15 -36 -47 -60 -75 -93 -87 -69 -48 -34 7 40 36 40 53 55 57 57 56 52 45 39 30 18 15 2 -1 -6 -11 -18 -20 -24 -17 -3 12 26 30 30 34 44 51 49 45 16 13 16 33 32 32 37 
2 0 3 17 27 24 14 4 3 14 31 42 42 40 45 51 48 43 42 34 23 9 -26 -52 -62 -75 -78 -72 -68 -55 -43 -3 21 19 19 19 18 15 13 12 5 -9 -24 -69 -98 -106 -120 -115 -117 -126 -124 -122 -117 -97 -79 -26 38 53 59 46 39 39 47 46 39 29 19 22 22 21 16 2 0 -7 -10 -22 -40 -68 -68 -60 -45 -30 2 25 20 23 38 38 43 45 43 42 39 37 35 30 30 16 6 -2 -12 -21 -22 -22 -15 -7 1 9 9 10 16 27 38 37 33 11 12 17 30 28 27 33 
-24 -31 -20 -2 9 6 0 -14 -19 -8 12 26 26 25 30 36 33 34 33 28 22 10 -20 -44 -53 -68 -74 -71 -74 -63 -50 -13 6 3 3 6 8 9 9 11 5 -9 -21 -58 -84 -93 -109 -107 -107 -111 -108 -107 -98 -73 -49 8 65 74 65 39 29 27 34 32 27 20 13 21 27 30 31 29 34 35 36 23 5 -28 -38 -50 -34 -24 0 13 7 11 24 26 36 42 43 45 49 51 56 55 53 37 21 5 -10 -23 -21 -17 -13 -9 -5 -2 -5 -3 4 13 25 24 24 9 13 17 26 22 22 26 
-32 -37 -26 -8 3 1 -4 -16 -22 -11 8 20 20 17 22 26 23 24 25 23 19 9 -15 -35 -43 -57 -62 -62 -69 -59 -50 -17 1 -1 -2 -1 3 2 4 6 2 -6 -15 -46 -68 -75 -92 -91 -90 -96 -94 -94 -86 -60 -38 17 64 70 55 31 20 22 29 28 24 19 14 23 32 35 39 40 44 43 45 33 15 -16 -26 -43 -30 -19 0 6 0 5 17 22 32 39 40 44 50 53 59 58 55 37 22 7 -7 -21 -18 -16 -10 -8 -8 -9 -10 -9 -1 8 19 18 17 7 12 14 20 16 16 18 
-34 -40 -29 -12 0 2 0 -9 -13 -7 8 21 20 14 12 14 13 14 15 17 18 14 0 -13 -20 -30 -39 -41 -52 -48 -40 -16 -2 -4 -6 -5 -3 -1 0 4 1 -4 -8 -28 -43 -49 -62 -66 -67 -72 -73 -74 -67 -43 -25 20 55 57 41 17 8 12 18 18 15 12 8 18 31 34 39 42 46 44 46 36 24 -3 -11 -32 -20 -12 -1 0 -7 -3 6 10 19 26 29 33 40 43 51 51 47 31 19 4 -7 -18 -14 -13 -8 -10 -11 -15 -18 -19 -9 -1 7 8 9 4 8 9 10 6 7 9 
-44 -51 -39 -23 -9 -4 -5 -14 -21 -15 0 10 9 3 0 1 2 6 8 14 19 18 9 1 -5 -12 -24 -30 -49 -46 -41 -21 -12 -16 -16 -14 -11 -6 -2 1 1 -3 -4 -15 -23 -29 -43 -47 -48 -54 -54 -57 -48 -21 -5 39 64 64 40 10 1 2 10 11 10 8 8 19 34 40 48 54 58 54 52 45 36 10 0 -19 -11 -4 0 -5 -15 -11 0 3 15 24 25 33 40 46 55 54 48 31 18 4 -7 -18 -13 -9 -7 -12 -16 -22 -25 -25 -19 -10 -2 0 1 1 5 4 1 -2 -4 -2 
-42 -47 -38 -24 -10 -7 -8 -15 -21 -17 -3 4 4 0 -2 -1 0 2 5 10 14 13 6 0 -5 -12 -22 -28 -43 -43 -38 -20 -11 -15 -18 -15 -11 -7 -2 0 1 -2 -3 -11 -16 -22 -35 -39 -40 -45 -44 -47 -40 -17 -2 38 57 57 34 8 0 1 9 10 10 9 10 22 34 41 46 54 57 51 49 42 34 11 3 -16 -9 -2 1 -5 -14 -10 0 3 14 20 24 32 40 45 53 51 45 28 17 4 -7 -16 -11 -7 -7 -11 -14 -20 -23 -24 -18 -10 -2 0 0 1 5 3 0 -4 -5 -4 
-34 -40 -29 -15 -3 3 2 -1 -6 -4 7 17 14 6 0 0 1 3 5 11 15 17 14 9 6 0 -10 -15 -34 -33 -29 -14 -7 -10 -12 -11 -9 -5 -2 1 0 -1 -1 -8 -13 -17 -29 -32 -36 -40 -44 -45 -40 -21 -8 26 42 42 22 2 -1 0 5 6 6 6 4 14 25 31 37 43 45 42 42 35 29 8 1 -13 -7 -3 -2 -9 -16 -13 -4 0 7 13 16 22 27 32 40 40 36 23 14 2 -7 -14 -10 -6 -5 -10 -14 -20 -24 -25 -18 -10 -2 -2 0 0 2 2 0 -4 -4 -2 
-24 -29 -20 -9 0 8 6 3 0 1 11 18 16 9 2 1 2 1 4 9 14 16 16 13 9 7 -2 -6 -21 -21 -19 -8 -3 -5 -7 -8 -6 -3 -1 0 0 0 0 -6 -9 -12 -21 -24 -26 -28 -32 -33 -29 -16 -7 17 29 27 14 1 -2 -1 1 1 0 0 0 6 14 18 23 28 30 30 32 27 23 6 1 -9 -6 -3 -2 -7 -13 -11 -6 -4 2 5 6 11 15 20 26 27 25 16 8 1 -4 -10 -7 -4 -3 -7 -11 -16 -19 -20 -15 -9 -3 -3 -1 0 1 1 0 -3 -3 -2 
-24 -27 -18 -8 0 7 8 2 0 2 12 19 16 9 2 2 1 3 5 10 15 17 15 12 8 5 -1 -7 -20 -19 -17 -6 -3 -4 -6 -6 -4 -2 -1 0 0 0 0 -6 -10 -14 -22 -24 -25 -27 -29 -33 -29 -15 -7 16 29 25 14 1 -1 0 1 1 0 0 0 5 12 16 19 25 27 30 32 26 22 5 0 -9 -6 -3 -3 -7 -13 -10 -6 -4 0 3 5 9 13 16 24 26 23 16 8 1 -4 -9 -7 -3 -3 -6 -10 -15 -18 -18 -14 -10 -3 -2 -1 0 1 1 0 -2 -2 -2 
-20 -23 -13 -5 2 8 8 5 1 2 12 17 14 7 2 1 2 3 6 11 15 17 14 13 11 7 1 -3 -16 -16 -13 -5 -2 -3 -5 -4 -3 -1 0 0 0 0 -1 -6 -9 -12 -18 -21 -21 -24 -25 -25 -22 -11 -4 15 26 25 14 1 0 -1 0 0 -1 -2 -3 1 7 10 15 16 21 23 24 21 17 4 1 -7 -4 -1 -2 -6 -11 -9 -6 -4 0 2 2 5 9 10 16 20 18 12 5 0 -4 -9 -6 -2 -3 -5 -9 -13 -15 -16 -13 -8 -4 -4 -1 0 0 0 0 -2 -2 -1 
-19 -22 -14 -6 0 6 5 2 0 0 8 12 10 4 0 0 0 3 5 12 17 20 17 16 15 13 4 0 -14 -14 -12 -5 -4 -5 -5 -6 -4 -3 -1 0 0 0 0 -3 -6 -9 -14 -16 -16 -18 -19 -19 -15 -5 2 22 29 28 17 2 -1 -1 0 0 -1 -1 -1 1 6 9 12 16 16 18 18 16 13 4 0 -3 0 1 1 -3 -8 -7 -5 -3 -1 2 2 4 8 9 14 15 13 8 3 -2 -5 -8 -5 -3 -3 -5 -9 -12 -14 -14 -10 -8 -3 -3 -2 0 0 0 -1 -3 -5 -4 
-18 -21 -14 -6 0 4 3 1 -1 0 6 10 7 2 -1 -1 0 2 4 10 15 15 16 14 13 10 3 -1 -12 -12 -11 -4 -3 -4 -4 -5 -3 -2 -1 0 0 0 -1 -2 -5 -8 -13 -15 -14 -16 -15 -15 -12 -1 4 20 27 24 15 2 -1 -1 -1 -2 -4 -4 -4 0 4 6 9 13 15 19 22 18 15 7 3 -2 0 1 0 -4 -8 -7 -5 -4 -1 0 2 3 3 7 12 15 13 9 3 0 -3 -7 -5 -2 -2 -4 -7 -11 -13 -13 -10 -7 -3 -3 -1 0 0 0 0 -2 -3 -2 
-19 -20 -10 -5 0 3 1 0 -5 -2 3 9 6 2 0 0 0 3 4 11 16 16 14 13 11 10 2 0 -10 -11 -10 -3 -2 -2 -3 -3 -2 -1 0 0 0 0 -2 -5 -6 -8 -14 -14 -13 -12 -11 -9 -8 0 7 23 29 26 16 3 0 -1 -3 -5 -7 -7 -7 -4 0 1 5 11 12 21 24 21 18 9 5 0 0 2 0 -3 -6 -6 -6 -4 -1 -1 0 1 2 5 9 13 14 10 6 0 -2 -6 -5 -1 -1 -4 -6 -9 -12 -11 -9 -7 -4 -3 -3 -1 0 1 0 0 -1 -1 
-18 -19 -8 -3 1 6 6 3 0 0 6 10 8 3 0 -1 1 4 6 13 19 19 19 21 20 17 9 4 -4 -5 -5 -2 -1 -2 -2 -3 -1 -1 0 0 0 0 -1 -2 -5 -8 -11 -12 -9 -7 -4 -3 0 8 13 26 30 28 16 5 -1 -4 -8 -10 -13 -14 -14 -12 -10 -8 -4 2 6 18 23 22 20 11 8 2 3 3 0 -4 -7 -8 -9 -8 -7 -6 -6 -6 -5 -1 2 8 9 9 2 0 -2 -6 -3 0 0 -2 -8 -11 -13 -12 -10 -9 -7 -6 -6 -3 0 0 0 0 -1 -1 
-21 -22 -10 -3 5 14 13 12 6 6 15 20 16 8 0 -2 1 3 6 16 25 29 32 35 36 31 21 15 -1 -4 -3 -2 -2 -3 -4 -4 -3 -1 0 0 0 0 0 0 -1 -3 -7 -9 -7 -6 -6 -4 0 7 12 27 29 27 12 0 -4 -8 -13 -14 -19 -19 -19 -18 -14 -11 -8 0 5 19 25 22 19 11 9 4 5 5 -2 -9 -12 -13 -15 -13 -12 -13 -11 -12 -11 -8 0 5 6 8 2 0 -3 -6 -3 0 -1 -5 -9 -16 -19 -19 -16 -16 -11 -10 -8 -4 0 0 -2 -3 -3 -4 
-25 -29 -16 -7 2 11 11 9 2 1 12 16 14 3 -3 -5 -1 3 6 18 27 30 34 35 34 30 20 11 -6 -9 -8 -4 -5 -5 -8 -7 -5 -3 0 0 0 0 0 0 0 -2 -8 -10 -9 -7 -7 -6 -1 9 17 36 39 35 18 1 -5 -9 -11 -13 -16 -16 -15 -11 -8 -5 0 8 15 24 29 27 24 16 11 3 6 7 0 -9 -14 -14 -14 -13 -11 -8 -8 -7 -2 0 6 10 13 8 2 -2 -6 -9 -4 -1 -2 -6 -12 -18 -21 -21 -19 -17 -12 -12 -9 -4 -1 -2 -4 -7 -6 -6 
-31 -34 -22 -15 -11 -10 -13 -16 -23 -23 -14 -10 -11 -10 -8 -7 -2 0 3 12 15 14 12 10 9 7 1 -4 -13 -16 -15 -10 -9 -11 -12 -10 -7 -3 -1 0 0 -1 -1 -2 -3 -7 -11 -12 -8 -3 0 2 10 22 32 49 53 49 31 8 -1 -5 -7 -8 -8 -10 -9 -3 1 2 8 17 25 34 38 36 33 24 18 6 10 9 4 -4 -8 -8 -8 -6 0 2 2 4 7 11 18 21 21 17 9 3 -2 -6 -2 0 -1 -3 -7 -13 -14 -13 -10 -9 -7 -7 -7 -1 -1 -1 -2 -3 -4 -4 
-33 -35 -24 -20 -20 -23 -27 -32 -40 -39 -30 -28 -26 -21 -13 -10 -5 0 0 7 8 7 2 0 -3 -3 -8 -12 -16 -17 -17 -15 -14 -16 -14 -12 -7 -3 -1 0 0 -2 -1 -1 -3 -6 -10 -9 -6 0 7 11 19 31 41 57 57 55 38 10 0 -5 -6 -6 -5 -6 -4 -1 4 5 8 20 29 38 41 38 38 28 22 8 12 12 5 -2 -4 -3 -3 -2 2 5 5 8 13 18 23 26 25 19 11 5 -1 -3 -1 0 0 -2 -5 -9 -9 -7 -6 -5 -7 -6 -5 -1 -1 0 -2 -1 -4 -5 
-35 -35 -28 -23 -24 -28 -30 -34 -41 -41 -35 -32 -31 -27 -19 -16 -10 -4 0 5 7 5 0 0 -1 -2 -5 -11 -16 -18 -18 -18 -18 -19 -20 -15 -11 -6 -2 0 0 -1 1 5 6 2 -1 -1 0 4 11 16 23 35 42 59 57 54 35 8 -1 -6 -4 -3 -2 -2 0 5 10 12 17 29 36 38 37 35 37 30 27 10 13 13 9 -1 -7 -4 -3 -1 4 7 8 13 18 23 28 27 24 15 10 4 -1 -4 -2 0 0 -3 -6 -8 -10 -8 -8 -7 -8 -7 -5 -2 -2 -3 -7 -6 -9 -10 
-29 -31 -24 -19 -17 -15 -17 -21 -26 -26 -20 -16 -18 -16 -14 -12 -9 -3 0 5 8 8 9 9 9 7 2 -3 -12 -14 -15 -12 -13 -15 -16 -13 -11 -6 -2 0 0 0 1 5 7 5 2 -1 0 1 4 6 13 24 31 45 42 40 25 3 -2 -5 -4 -4 -2 -2 0 5 10 12 16 25 28 30 29 28 30 22 20 7 8 10 6 -4 -8 -7 -4 -3 3 4 5 7 14 17 21 21 19 11 5 2 -2 -4 -2 0 -2 -3 -6 -11 -12 -10 -9 -8 -7 -7 -6 0 -2 -3 -6 -8 -8 -9 
-26 -26 -21 -15 -11 -9 -9 -11 -17 -17 -11 -8 -10 -10 -10 -11 -7 -3 0 5 9 12 12 14 13 12 6 0 -9 -11 -12 -10 -11 -12 -13 -12 -8 -5 -2 0 0 0 1 5 7 7 3 0 0 -1 2 1 8 18 23 37 35 32 18 1 -3 -4 -3 -3 -3 -2 0 5 8 11 15 23 26 25 25 23 23 18 15 5 8 9 5 -5 -9 -9 -7 -5 0 3 4 6 8 13 17 18 15 9 4 0 -4 -5 -2 -1 -2 -4 -7 -11 -13 -13 -10 -9 -8 -8 -5 0 -2 -3 -6 -8 -9 -9 
-21 -22 -17 -12 -7 -4 -4 -6 -8 -9 -5 -2 -3 -7 -10 -8 -6 -1 0 5 8 10 13 14 13 12 6 2 -8 -10 -9 -8 -10 -10 -11 -11 -7 -3 -1 0 0 0 1 5 7 7 3 0 0 -2 -1 0 3 10 16 28 26 24 12 0 -4 -4 -3 -2 -1 -1 0 5 9 11 14 21 22 21 21 17 19 14 13 3 5 7 4 -4 -8 -6 -7 -4 -1 3 3 5 8 12 15 14 12 6 2 -1 -3 -5 -2 -1 -2 -3 -7 -11 -12 -11 -10 -9 -6 -5 -4 0 -2 -3 -6 -8 -8 -8 
-15 -18 -13 -7 -1 2 2 1 1 0 3 7 5 0 -3 -4 -3 -2 -1 3 7 10 14 15 15 13 8 4 -5 -7 -6 -4 -4 -4 -6 -6 -5 -3 -2 0 0 0 2 4 6 5 3 -1 -1 -4 -7 -7 -6 1 2 14 13 10 2 -4 -6 -2 -3 -2 -1 0 0 4 8 10 14 17 19 18 18 17 14 9 7 0 1 2 -1 -6 -9 -8 -7 -5 -1 0 2 3 4 6 11 12 10 5 3 0 -2 -3 -3 -1 -1 -4 -6 -10 -12 -13 -10 -8 -5 -5 -3 0 0 -2 -4 -6 -6 -6 
-15 -17 -13 -7 -1 2 3 2 1 1 5 8 6 1 -3 -4 -3 -2 -1 2 7 12 14 15 14 14 9 4 -4 -6 -6 -3 -4 -4 -5 -6 -4 -3 -2 0 0 0 2 4 6 5 2 0 -1 -4 -7 -8 -6 0 3 12 12 7 2 -5 -6 -3 -3 -2 -3 -1 0 4 8 12 13 18 18 19 20 18 16 11 8 0 0 0 -1 -6 -10 -9 -7 -5 -3 -1 0 3 5 6 11 11 10 7 3 1 -2 -4 -3 0 -2 -3 -6 -10 -13 -13 -12 -9 -5 -5 -3 0 0 -1 -3 -5 -5 -6 
-14 -15 -10 -4 0 4 5 4 1 3 7 9 9 3 -1 -2 -2 -1 0 3 8 10 15 16 14 13 8 5 -3 -5 -4 -2 -2 -3 -4 -4 -3 -2 -1 0 0 0 1 4 4 3 1 -1 -1 -3 -6 -8 -6 0 2 11 11 8 1 -4 -4 -3 -5 -4 -6 -4 -3 0 2 6 9 13 13 17 18 17 16 8 6 0 1 1 -2 -7 -7 -7 -7 -6 -5 -2 0 0 3 4 7 10 9 6 4 0 -2 -3 -3 0 -2 -3 -6 -11 -12 -14 -11 -10 -5 -4 -3 0 0 -1 -3 -4 -4 -4 
-13 -15 -9 -4 0 4 4 4 2 3 7 10 9 4 -1 -2 -2 -1 -1 1 7 9 13 16 15 13 9 4 -2 -3 -3 -2 -2 -2 -3 -3 -2 -2 -1 0 0 0 1 3 4 2 1 -1 -2 -4 -6 -6 -6 0 3 8 8 4 -1 -5 -5 -3 -5 -6 -6 -5 -3 -1 3 5 8 12 14 19 20 20 18 11 7 0 0 0 -3 -7 -9 -8 -8 -6 -6 -4 -3 0 2 4 6 9 10 6 4 1 -1 -3 -2 0 -1 -2 -6 -10 -12 -13 -11 -9 -5 -4 -3 0 0 0 -2 -2 -3 -3 
-13 -13 -9 -4 1 5 5 4 2 3 7 9 8 3 -1 -1 -2 0 0 3 8 9 13 16 15 13 7 5 -3 -4 -3 -1 -2 -2 -3 -3 -2 -2 0 0 0 0 1 1 3 2 0 -2 -2 -4 -5 -7 -6 0 1 10 9 7 0 -2 -4 -3 -5 -5 -7 -5 -4 -2 1 3 7 11 12 17 20 20 17 10 6 0 0 0 -3 -7 -8 -7 -7 -6 -6 -3 -2 0 1 2 6 9 8 8 5 0 -1 -3 -2 0 -1 -2 -6 -10 -11 -13 -11 -8 -4 -4 -3 0 0 0 -2 -2 -2 -2 
-15 -16 -12 -7 0 6 7 6 3 3 9 12 10 3 -1 -3 -2 0 0 3 9 13 17 20 18 17 11 7 -2 -5 -5 -3 -3 -3 -4 -6 -4 -2 -1 0 0 0 0 2 3 3 0 -3 -2 -4 -7 -9 -6 0 2 12 12 9 2 -3 -5 -4 -5 -5 -6 -6 -4 -1 4 5 10 13 14 18 22 19 18 10 8 0 0 0 -2 -8 -9 -8 -8 -7 -6 -3 -2 0 3 3 8 10 10 6 3 0 -2 -4 -2 0 -2 -3 -6 -12 -14 -15 -11 -10 -7 -6 -3 -1 0 -1 -3 -5 -4 -4 
-15 -16 -11 -7 -1 4 5 4 1 1 6 8 7 2 -2 -3 -2 -2 0 4 8 10 15 17 17 15 10 6 -2 -4 -4 -2 -3 -3 -4 -5 -3 -3 -2 0 0 0 1 4 4 3 0 0 -1 -2 -5 -6 -4 2 4 13 13 10 3 -4 -4 -4 -5 -5 -6 -3 -4 0 4 5 9 11 15 18 19 19 16 10 8 0 1 1 -2 -6 -8 -7 -8 -6 -4 -2 0 0 3 3 7 10 9 6 3 0 -2 -4 -2 0 -1 -3 -6 -10 -12 -13 -10 -9 -6 -6 -3 -1 0 -1 -3 -4 -4 -4 
-17 -19 -13 -8 -1 1 2 1 0 -1 3 6 4 0 -3 -4 -3 -2 0 5 9 11 14 17 16 15 8 5 -5 -7 -7 -4 -4 -5 -6 -7 -4 -3 -1 0 0 0 2 2 4 4 1 -2 -1 -3 -4 -5 -3 3 7 18 17 13 4 -2 -5 -4 -5 -5 -5 -5 -3 0 5 7 11 14 18 20 23 21 21 13 9 0 2 3 -1 -8 -10 -9 -8 -7 -4 -1 0 2 3 5 9 11 11 7 5 0 -3 -4 -2 0 -1 -3 -7 -11 -13 -13 -12 -9 -6 -6 -4 -1 0 -1 -4 -5 -5 -5 
-26 -27 -20 -13 -5 0 1 0 -4 -4 0 5 3 -3 -5 -7 -5 -2 -1 5 12 16 19 21 19 18 11 4 -7 -11 -10 -8 -8 -9 -11 -11 -8 -4 -2 0 0 0 1 6 6 6 2 -1 -2 -3 -4 -5 -3 8 13 29 27 23 10 -2 -7 -6 -6 -6 -6 -6 -2 2 8 11 16 24 25 27 29 27 27 18 13 2 4 6 0 -9 -12 -11 -11 -8 -4 0 0 4 7 10 16 16 15 11 6 1 -3 -6 -3 -1 -2 -5 -9 -16 -18 -18 -15 -13 -10 -8 -6 0 -1 -2 -6 -8 -8 -8 
-25 -27 -20 -14 -10 -3 -3 -5 -9 -10 -4 0 -2 -6 -9 -10 -7 -4 -1 5 9 12 16 18 17 16 10 3 -7 -10 -9 -10 -10 -11 -12 -12 -7 -6 -3 0 0 0 2 6 9 8 6 1 0 -1 -1 -2 0 11 17 29 28 23 10 -3 -6 -6 -5 -4 -4 -2 -1 4 10 13 17 24 27 28 27 25 26 19 15 3 4 6 1 -7 -12 -11 -9 -7 -3 2 1 5 7 11 17 18 14 9 4 0 -3 -5 -3 -1 -2 -4 -8 -14 -17 -16 -13 -12 -9 -9 -6 0 -1 -2 -6 -8 -9 -9 
-20 -21 -17 -12 -6 -2 -2 -2 -5 -7 -2 -1 -1 -5 -8 -9 -6 -2 -1 3 7 10 13 16 14 14 8 3 -5 -8 -7 -7 -8 -9 -10 -10 -8 -5 -1 0 0 0 2 6 8 7 5 2 0 -1 0 0 1 10 14 23 21 18 7 -1 -5 -5 -4 -4 -3 -2 -1 3 9 11 13 19 21 20 20 19 18 15 12 3 5 5 1 -7 -8 -7 -7 -5 -2 0 2 5 5 9 13 13 10 5 3 0 -3 -4 -2 0 -2 -3 -6 -9 -13 -13 -11 -10 -7 -6 -5 0 -1 -4 -6 -7 -8 -8 
-8 -9 -8 -4 -1 3 5 6 4 3 4 4 1 -2 -6 -6 -5 0 0 5 10 12 15 19 20 19 14 7 -2 -4 -6 -6 -6 -7 -8 -7 -6 -4 -2 0 0 0 1 6 10 10 8 4 1 0 -2 -1 0 4 5 12 11 11 6 0 -4 -1 1 2 3 3 4 7 9 10 11 11 8 -2 -9 -9 -5 -1 1 2 4 7 5 -1 -5 -6 -4 -3 0 0 1 2 3 4 4 0 -2 -8 -8 -7 -5 -4 -2 -1 -2 -3 -5 -6 -8 -7 -6 -5 -6 -5 -3 0 -2 -4 -8 -9 -9 -10 
0 -2 -3 0 6 15 17 19 18 15 14 13 8 0 -5 -6 -3 2 4 13 19 21 23 26 28 26 19 13 -1 -3 -3 -4 -5 -6 -8 -8 -8 -6 -2 -1 0 0 2 7 11 11 10 4 1 -7 -5 -5 -5 -2 -1 5 10 12 11 2 -2 0 5 8 7 8 7 9 8 8 6 0 -6 -24 -36 -37 -32 -18 -9 1 6 11 10 2 -3 -3 0 0 1 1 1 0 0 0 -4 -12 -17 -23 -20 -16 -9 -6 -3 -2 -3 -4 -5 -6 -7 -7 -5 -3 -3 -3 -2 -1 -4 -7 -11 -13 -14 -14 
-2 -5 -5 1 7 16 20 21 20 17 18 17 13 3 -4 -5 -2 0 3 13 18 19 24 28 29 28 18 13 -1 -3 -3 -3 -5 -6 -8 -8 -7 -5 -2 0 0 0 3 7 11 10 8 4 0 -7 -9 -10 -9 -7 -5 3 8 10 6 -1 -3 0 4 6 6 6 6 7 8 8 7 4 -2 -16 -28 -29 -22 -13 -7 0 4 8 7 0 -5 -5 -2 -1 0 0 0 0 0 0 -2 -7 -12 -17 -15 -13 -8 -5 -3 -2 -3 -5 -7 -9 -10 -10 -7 -5 -4 -3 -2 -1 -4 -6 -10 -12 -12 -12 
-7 -9 -7 -1 6 16 19 20 20 19 24 25 21 11 0 -1 -2 -2 0 4 9 13 22 24 25 24 15 12 -2 -3 -3 -1 -1 -3 -4 -6 -5 -4 -2 -1 0 1 4 5 7 7 3 0 -2 -8 -14 -18 -18 -12 -11 -2 -1 -3 -8 -10 -8 -2 0 0 0 0 0 2 6 8 10 11 7 5 4 3 1 0 0 -3 -4 -3 -4 -8 -12 -10 -8 -6 -5 -5 -3 -1 0 0 3 2 1 0 -2 -2 -3 -4 -2 -1 -2 -4 -8 -12 -15 -16 -13 -9 -5 -4 -3 0 -1 -1 -4 -6 -5 -5 
-5 -7 -5 0 6 15 17 19 18 19 23 24 22 14 3 0 0 -2 -3 -2 4 8 15 17 17 16 11 8 -1 -2 -3 0 0 0 -1 -3 -3 -2 -1 -1 0 1 3 3 5 5 2 -1 -3 -7 -14 -19 -21 -17 -15 -10 -8 -10 -16 -11 -8 -2 -2 -2 -1 0 0 1 6 9 10 11 10 9 12 12 9 2 0 -4 -7 -7 -7 -10 -12 -10 -8 -6 -5 -4 -3 0 0 1 3 6 7 4 3 0 0 -2 -2 -1 -1 -4 -6 -11 -13 -15 -12 -9 -4 -3 -2 0 1 1 -1 -2 -1 -1 
-8 -10 -8 -3 4 11 11 12 12 12 16 19 18 9 2 0 -2 -3 -2 0 5 9 16 19 18 17 10 7 -3 -3 -2 -1 0 -2 -3 -4 -3 -3 -1 -1 0 1 3 4 5 5 1 -1 -2 -6 -11 -14 -16 -11 -8 -3 -2 -5 -11 -10 -7 -2 -3 -3 -3 -2 -2 0 5 8 10 11 13 14 16 14 11 4 1 -3 -4 -4 -6 -9 -10 -9 -7 -5 -4 -3 -2 0 1 2 5 8 7 6 4 1 -1 -3 -1 -1 -1 -3 -7 -11 -13 -15 -13 -9 -3 -3 -2 0 0 0 -2 -3 -2 -2 
-24 -25 -18 -12 -4 1 1 0 -4 -4 1 5 3 -2 -5 -6 -4 -2 -2 4 11 15 18 20 18 16 10 4 -5 -9 -9 -6 -7 -8 -10 -10 -6 -3 -2 0 0 0 1 4 6 4 1 -2 -2 -2 -3 -4 -1 7 13 26 24 20 7 -3 -7 -7 -7 -7 -8 -7 -4 0 6 7 13 20 23 28 31 29 28 18 14 2 3 4 -1 -8 -12 -11 -11 -9 -4 -1 -1 3 5 7 13 16 15 12 6 1 -2 -4 -2 -1 -1 -5 -8 -15 -17 -17 -15 -12 -9 -8 -6 -1 0 -1 -4 -6 -6 -6 
-22 -22 -14 -10 -6 -6 -5 -8 -13 -13 -7 -3 -4 -5 -6 -6 -2 0 0 6 10 12 11 11 10 8 5 1 -6 -8 -8 -6 -6 -6 -7 -6 -5 -2 -1 0 0 0 -1 1 1 0 -3 -4 -2 0 2 3 7 15 21 33 30 30 17 2 -2 -4 -6 -8 -7 -8 -6 -3 0 1 5 10 15 23 26 25 24 17 13 4 6 5 3 -4 -6 -6 -7 -5 -2 0 0 1 3 4 9 12 12 10 5 2 -2 -4 -1 0 -1 -3 -5 -8 -10 -9 -8 -8 -7 -6 -5 -1 -1 -1 -1 -3 -4 -4 
-15 -16 -6 -2 0 0 0 -3 -8 -7 -1 3 2 1 1 0 2 5 4 9 11 12 10 8 7 5 1 0 -4 -6 -4 0 0 0 0 0 0 0 1 1 0 -1 -4 -6 -8 -11 -14 -12 -10 -4 -2 0 2 7 14 24 27 26 16 5 1 -3 -7 -9 -11 -12 -12 -11 -9 -8 -5 0 5 20 25 25 22 12 8 0 2 1 0 -2 -3 -3 -5 -5 -4 -4 -4 -4 -2 0 4 7 10 12 6 3 0 -3 -1 0 0 -1 -3 -5 -7 -5 -5 -5 -4 -3 -2 -1 0 1 3 2 1 1 
-14 -14 -1 2 4 1 -1 -7 -13 -9 0 5 4 4 8 12 12 14 15 17 18 15 5 -1 -3 -7 -10 -9 -12 -10 -8 1 5 4 5 5 6 5 5 4 1 -3 -9 -21 -31 -35 -38 -34 -28 -19 -12 -7 -2 3 11 26 39 39 32 18 10 0 -5 -9 -14 -17 -19 -20 -21 -23 -21 -13 -4 18 30 28 19 5 0 -2 0 -1 -1 0 1 1 0 -1 -2 -2 -3 -6 -5 -4 0 8 14 18 10 5 0 -5 -4 0 0 0 0 -1 -1 0 0 0 0 0 0 -1 1 6 12 12 11 11 
-11 -12 0 3 7 6 2 0 -6 -4 2 10 7 5 8 10 15 17 19 24 24 21 9 3 2 -3 -8 -8 -12 -11 -8 0 4 3 4 5 7 6 6 5 0 -4 -9 -23 -32 -36 -41 -35 -31 -24 -18 -13 -6 0 7 26 42 45 36 20 11 0 -2 -4 -10 -13 -16 -19 -22 -22 -21 -17 -8 10 15 12 6 -2 -4 -2 0 1 2 2 1 0 0 0 0 -1 -2 -5 -7 -5 -1 3 8 10 3 1 -4 -5 -4 -1 0 0 -1 -1 -1 0 0 0 0 0 0 -2 0 4 8 11 10 8 
-8 -9 0 5 8 8 7 1 0 0 6 12 9 6 6 9 13 16 17 23 24 21 14 8 6 2 -1 -4 -8 -7 -6 0 3 2 3 3 5 5 6 4 0 -3 -7 -17 -25 -28 -32 -27 -25 -20 -15 -11 -5 0 5 21 36 38 31 17 10 1 0 -3 -7 -10 -13 -16 -18 -19 -18 -16 -10 1 3 0 0 -5 -5 -3 1 3 3 3 1 0 0 0 0 -1 -2 -5 -7 -6 -4 0 1 3 0 -2 -5 -4 -3 -1 0 0 -1 -1 -1 0 0 0 0 0 0 -1 0 1 5 6 5 4 
6 6 7 7 8 11 9 11 8 5 3 2 -1 -3 -3 0 5 10 11 20 21 19 16 18 18 18 12 9 5 2 2 0 0 0 0 0 0 0 2 1 0 0 -2 -2 -2 -2 -1 1 0 0 4 10 13 11 12 13 17 21 23 14 6 2 1 0 0 -3 -5 -8 -14 -17 -21 -23 -26 -31 -38 -39 -32 -19 -9 4 12 14 12 8 6 4 1 1 0 -2 -5 -8 -13 -14 -18 -22 -23 -24 -21 -14 -7 -3 -1 -1 0 0 0 3 3 6 3 2 -1 -1 -1 -3 -5 -5 -5 -6 -6 -7 
0 0 -1 -4 -11 -14 -16 -16 -17 -23 -29 -35 -37 -32 -24 -18 -8 2 5 14 13 11 10 12 17 17 14 8 9 3 0 -10 -13 -14 -12 -10 -7 -4 -1 0 0 0 0 10 16 17 22 23 22 24 40 48 54 51 49 46 37 40 38 18 5 -2 0 1 2 1 3 0 -5 -9 -13 -13 -16 -32 -49 -46 -32 -6 7 22 30 34 26 13 10 5 2 1 3 2 0 -3 -4 -4 -11 -21 -27 -33 -27 -19 -9 -1 0 2 1 0 1 5 7 12 7 2 -7 -6 -7 -5 -9 -12 -15 -15 -15 -20 
-7 -4 -8 -10 -22 -30 -30 -30 -35 -40 -49 -55 -55 -46 -31 -26 -14 -1 1 11 10 5 1 5 9 12 11 4 7 3 -3 -12 -19 -19 -17 -13 -10 -5 -1 0 0 0 0 13 22 22 27 29 30 35 52 62 70 66 66 60 45 50 44 18 3 -4 -3 -1 0 1 3 2 -3 -7 -9 -7 -8 -22 -37 -34 -18 7 18 29 37 38 29 13 9 7 1 1 4 4 2 0 0 1 -4 -17 -23 -28 -23 -16 -7 0 3 5 1 1 3 6 10 14 9 2 -8 -8 -9 -5 -9 -12 -16 -16 -17 -21 
-8 -4 -3 -9 -23 -34 -36 -40 -43 -47 -54 -58 -56 -43 -26 -20 -10 -2 1 8 3 0 -4 -1 0 4 6 3 12 7 3 -6 -13 -12 -10 -5 -3 0 0 0 0 -1 -2 8 13 12 20 25 30 43 62 72 79 76 73 62 44 44 37 18 5 -7 -13 -14 -13 -14 -10 -15 -22 -27 -27 -19 -12 -4 -9 -5 5 21 27 32 36 33 21 10 10 7 0 -1 -2 -3 -6 -10 -9 -8 -9 -14 -15 -12 -9 -4 0 5 5 7 5 6 4 8 11 15 9 1 -8 -9 -9 -6 -6 -6 -8 -5 -6 -11 
0 4 13 4 -3 -14 -17 -20 -23 -26 -28 -29 -27 -19 -8 -5 1 5 5 11 9 8 8 11 13 16 18 20 27 22 20 6 3 4 7 7 8 7 4 1 0 -1 -4 -1 -1 -4 5 15 25 45 61 69 75 69 65 45 28 28 24 14 5 -14 -29 -33 -35 -39 -37 -46 -57 -63 -62 -49 -35 -1 10 15 17 25 26 32 31 22 5 1 8 2 -9 -13 -19 -25 -29 -37 -41 -38 -36 -25 -16 0 0 3 5 8 8 9 9 8 6 6 10 13 5 -2 -12 -12 -13 -9 -5 0 4 8 6 2 
1 6 19 12 4 -2 -4 -7 -14 -16 -15 -14 -16 -8 0 2 8 10 11 19 19 19 18 22 24 26 26 28 35 31 28 15 10 13 14 15 14 11 8 4 0 -3 -7 -7 -11 -14 -4 8 21 44 59 68 74 67 62 42 27 26 21 15 7 -17 -38 -44 -49 -52 -53 -66 -79 -86 -83 -69 -51 -1 18 24 21 25 24 33 29 19 0 -1 6 0 -14 -21 -30 -37 -43 -53 -58 -58 -51 -33 -19 4 2 6 6 9 8 11 10 9 7 6 9 12 4 -5 -15 -15 -16 -12 -6 2 8 15 13 9 
11 18 39 32 29 24 22 17 7 4 9 12 10 7 10 12 18 20 25 35 42 44 50 56 59 60 57 57 60 54 51 34 25 28 30 27 26 23 16 10 0 -3 -10 -14 -21 -24 -12 5 24 58 72 83 90 79 71 42 22 19 20 17 9 -26 -60 -73 -83 -89 -89 -111 -129 -139 -139 -119 -94 -10 19 29 25 27 25 43 38 22 -4 -5 6 -4 -29 -39 -55 -70 -79 -93 -103 -103 -94 -62 -38 0 -1 3 4 12 10 12 13 12 6 4 9 12 1 -13 -23 -26 -27 -21 -14 1 15 24 23 17 
7 12 48 41 47 50 48 44 32 30 40 48 42 29 24 21 24 25 27 42 57 64 79 89 93 92 85 83 75 68 64 50 39 41 40 36 32 29 19 10 1 -2 -10 -15 -22 -28 -14 3 24 64 72 81 87 77 67 36 11 5 2 8 3 -37 -83 -100 -113 -118 -119 -144 -162 -171 -165 -140 -105 5 52 62 50 42 33 48 38 15 -18 -20 -5 -19 -50 -59 -81 -98 -107 -124 -134 -132 -116 -70 -36 13 7 8 6 13 10 15 13 11 1 -5 -5 -5 -13 -28 -35 -37 -38 -26 -13 5 20 30 30 26 
4 6 47 44 53 61 60 53 42 38 54 65 57 41 29 26 29 28 31 48 65 73 88 97 101 96 88 85 73 67 64 52 43 44 43 38 35 30 22 14 2 -3 -12 -19 -31 -35 -25 -8 13 51 59 67 72 65 59 34 14 6 1 8 2 -39 -84 -103 -117 -123 -125 -150 -166 -173 -167 -142 -104 13 63 73 57 41 30 41 32 9 -23 -24 -10 -24 -53 -63 -85 -101 -109 -128 -136 -135 -116 -65 -31 20 10 10 3 11 10 13 13 9 -2 -11 -10 -11 -20 -31 -36 -38 -39 -28 -13 8 23 34 34 28 
-2 0 43 43 57 64 60 51 36 38 59 75 65 50 38 36 38 36 40 52 68 75 82 84 86 81 69 68 56 52 54 51 47 47 45 42 39 33 24 15 3 -6 -17 -33 -52 -60 -52 -32 -9 27 34 40 49 46 46 33 25 18 10 14 8 -32 -79 -98 -114 -124 -126 -149 -165 -171 -162 -138 -98 26 81 88 67 38 22 29 22 0 -26 -24 -10 -23 -48 -59 -78 -95 -102 -120 -128 -126 -104 -52 -14 35 21 15 4 6 6 9 10 7 -2 -12 -13 -12 -19 -29 -30 -32 -33 -24 -8 14 33 42 43 38 
-11 -9 31 32 39 35 29 16 2 5 27 43 39 34 34 36 38 37 40 49 55 56 50 45 45 36 32 32 32 32 33 38 39 41 38 37 36 32 23 15 2 -8 -21 -44 -66 -77 -71 -50 -26 14 24 32 45 47 51 49 50 47 37 27 16 -22 -62 -81 -95 -103 -107 -127 -142 -147 -141 -115 -75 39 89 94 71 38 20 21 17 0 -21 -14 -2 -10 -34 -42 -56 -69 -77 -93 -98 -94 -75 -28 4 44 31 21 7 5 4 6 10 8 1 -4 -3 -2 -8 -17 -21 -22 -22 -18 -4 18 37 46 43 42 
-15 -12 25 21 22 12 5 -8 -20 -15 2 16 13 18 27 30 35 32 34 39 40 38 27 19 18 10 10 14 21 23 24 26 30 31 32 33 32 28 20 12 2 -10 -21 -43 -66 -76 -70 -49 -26 14 27 38 50 53 60 58 60 57 46 32 20 -18 -54 -69 -80 -90 -94 -111 -125 -130 -123 -98 -58 43 90 95 72 42 26 21 17 0 -16 -8 3 -4 -23 -31 -43 -53 -61 -73 -77 -73 -56 -15 13 48 34 24 9 5 4 8 10 10 4 0 2 6 0 -10 -15 -16 -17 -15 0 18 36 44 43 40 
-22 -17 5 2 -4 -15 -22 -31 -42 -39 -29 -21 -19 -8 3 9 12 13 17 19 17 14 3 0 -2 -5 -4 0 10 10 10 10 11 9 12 14 16 14 11 5 0 -6 -12 -22 -33 -40 -36 -20 -4 21 38 47 57 60 64 64 57 54 41 23 13 -14 -36 -44 -51 -55 -55 -64 -71 -75 -68 -47 -22 42 72 74 63 45 32 22 21 10 -4 -3 3 0 -12 -18 -22 -26 -31 -36 -37 -33 -22 0 15 37 26 17 8 6 6 6 8 7 4 1 4 8 2 -5 -11 -13 -13 -8 0 9 18 25 22 22 
-23 -20 -6 -7 -13 -20 -25 -29 -37 -39 -32 -25 -25 -17 -6 -2 0 1 5 7 6 4 0 -2 -2 -4 -3 -1 3 3 2 0 0 -1 0 1 4 5 3 1 0 -3 -4 -5 -11 -15 -11 -5 3 22 33 39 45 51 54 54 46 42 28 12 3 -13 -23 -28 -31 -31 -29 -32 -36 -36 -31 -16 0 36 52 55 50 40 30 18 17 11 0 -4 0 -3 -9 -11 -10 -12 -14 -17 -14 -10 -4 6 15 25 17 12 5 4 4 5 6 4 1 -2 -1 2 0 -5 -9 -10 -10 -5 0 4 7 10 9 8 
-22 -21 -10 -10 -12 -15 -18 -22 -28 -30 -25 -18 -19 -14 -7 -5 -1 0 0 4 6 5 4 2 3 1 1 0 1 0 0 -2 -4 -4 -3 -2 0 1 0 0 0 -2 -1 -2 -3 -5 -5 -1 3 17 25 28 34 39 42 44 37 34 21 7 0 -10 -18 -21 -23 -23 -20 -20 -21 -22 -16 -5 5 33 44 43 43 34 26 15 14 8 0 -4 -4 -4 -9 -10 -9 -8 -10 -9 -8 -3 0 7 14 19 13 10 2 1 2 4 2 1 -1 -4 -4 -3 -3 -6 -10 -10 -9 -4 0 1 3 3 3 2 
-21 -22 -11 -10 -9 -8 -10 -12 -17 -18 -14 -10 -11 -9 -8 -6 -4 -2 0 5 9 9 11 13 12 12 7 4 0 -2 -3 -2 -5 -5 -8 -5 -2 -1 0 0 0 0 0 1 3 1 0 0 4 12 15 19 23 30 33 40 32 27 16 1 -2 -9 -15 -16 -17 -17 -15 -13 -11 -10 -4 3 11 28 35 36 33 27 21 12 12 10 0 -6 -8 -7 -11 -9 -7 -7 -8 -7 -3 0 2 10 12 13 8 4 0 -1 0 1 0 -1 -4 -8 -9 -8 -8 -9 -10 -10 -9 -3 0 0 -1 -1 -1 -1 
-20 -23 -14 -10 -8 -5 -5 -6 -10 -12 -8 -6 -8 -10 -11 -9 -7 -2 0 6 10 14 18 22 21 21 15 10 0 -3 -3 -3 -7 -8 -10 -8 -5 -2 -1 0 0 0 1 6 9 7 7 5 9 13 16 17 21 28 32 37 30 26 12 0 -6 -10 -13 -14 -15 -14 -11 -8 -5 -4 0 8 13 22 26 26 28 25 22 12 13 10 3 -7 -9 -10 -12 -12 -10 -9 -7 -5 -3 0 4 7 7 7 3 0 -2 -2 -1 2 0 -1 -6 -11 -13 -11 -11 -13 -12 -11 -9 -3 -2 -2 -4 -5 -6 -6 
-21 -21 -12 -10 -6 -1 -2 -3 -9 -11 -5 -2 -5 -7 -10 -11 -7 -2 0 5 13 16 20 24 25 24 19 13 3 0 -2 -3 -6 -7 -8 -7 -6 -2 -1 0 0 0 0 6 9 8 7 6 8 15 16 17 22 29 32 36 27 24 10 -1 -5 -11 -14 -17 -17 -17 -14 -12 -9 -7 -4 5 11 21 26 27 28 25 21 12 13 12 2 -9 -10 -10 -14 -13 -12 -11 -10 -9 -6 -3 2 4 6 7 3 1 -2 -2 0 2 0 -2 -6 -12 -13 -13 -12 -13 -14 -13 -10 -4 -2 -2 -4 -5 -5 -6 
-22 -23 -16 -12 -8 -2 -3 -2 -7 -9 -6 -3 -4 -9 -11 -11 -7 -4 -1 5 10 14 20 24 24 24 17 12 0 -4 -4 -4 -8 -9 -11 -10 -7 -4 -1 0 0 0 2 8 12 11 10 7 8 12 12 15 18 25 28 36 26 22 9 -2 -9 -11 -13 -13 -14 -13 -8 -5 -2 0 5 12 16 23 26 26 27 24 21 11 12 9 2 -8 -11 -10 -13 -12 -9 -7 -7 -4 0 3 6 8 8 7 3 0 -1 -4 -1 1 0 -3 -7 -13 -14 -14 -13 -13 -12 -12 -10 -3 -1 -3 -5 -6 -8 -8 
-22 -24 -16 -11 -8 -2 -3 -3 -8 -11 -6 -2 -5 -9 -11 -11 -7 -3 -1 7 11 14 20 24 23 24 16 12 0 -4 -4 -4 -8 -9 -10 -9 -6 -3 -1 0 0 0 2 7 11 10 9 5 7 11 12 14 19 26 30 37 30 25 10 -1 -7 -11 -14 -14 -14 -12 -9 -7 -4 -1 3 10 15 22 26 25 27 24 20 12 13 11 2 -7 -10 -10 -13 -12 -9 -7 -6 -5 -1 1 6 7 7 6 3 0 -3 -3 -1 1 0 -3 -7 -12 -13 -14 -13 -13 -12 -12 -10 -3 -1 -3 -5 -6 -7 -8 
