P2
# Created by Crouse and Stoll
122 136
255
8 9 7 5 5 8 9 11 14 12 8 6 4 2 0 -2 -3 -3 -3 -1 0 1 6 10 12 14 14 13 12 10 9 4 2 2 2 1 0 0 0 -2 0 1 3 8 12 12 15 14 12 11 10 8 6 1 -2 -12 -17 -18 -13 -7 -4 -2 -2 -2 -2 -2 -1 -4 -5 -6 -6 -9 -11 -13 -15 -14 -10 -3 -1 4 2 1 0 -1 0 -1 -2 -2 -6 -7 -7 -9 -10 -12 -14 -14 -13 -11 -7 -3 0 3 2 1 1 1 1 0 0 0 0 -1 -2 -2 -2 -1 -1 -2 -3 -3 -2 -3 
12 13 10 8 8 11 13 17 20 18 13 10 9 4 0 -1 -1 -2 -2 -1 0 2 9 13 14 17 16 15 14 13 11 7 3 4 3 1 1 0 0 -1 0 2 3 9 11 13 16 15 14 11 8 7 4 -1 -6 -17 -22 -23 -17 -8 -3 -1 -1 -2 -1 -1 0 -4 -6 -8 -8 -13 -16 -21 -23 -21 -16 -8 -5 3 1 0 0 -1 0 -1 -2 -3 -6 -8 -9 -10 -12 -15 -17 -17 -18 -15 -10 -5 0 3 3 1 1 1 1 1 2 0 0 0 -1 -1 -1 -1 -2 -2 -3 -3 -3 -3 
15 16 12 10 10 14 16 20 23 21 16 13 12 7 2 0 0 -1 -2 0 1 3 11 14 16 19 18 18 15 14 12 8 4 5 4 2 0 0 0 -1 0 2 3 7 12 13 16 16 13 10 8 6 2 -3 -8 -19 -25 -24 -18 -7 -3 -1 -1 -1 0 0 -1 -3 -6 -8 -11 -16 -19 -24 -27 -24 -22 -11 -6 2 0 0 0 0 1 0 -1 -2 -6 -8 -10 -12 -14 -16 -19 -21 -21 -17 -11 -7 -1 3 2 1 0 1 2 2 2 1 0 0 -1 -1 -1 0 -2 -4 -4 -4 -3 -3 
13 14 11 9 9 12 14 18 21 17 14 11 10 5 1 -1 0 -1 -2 -1 1 4 10 14 15 19 17 17 15 13 12 6 4 4 4 2 1 0 0 -1 0 2 3 7 10 12 14 14 13 10 8 7 4 -1 -6 -15 -20 -21 -15 -7 -3 -2 -1 -2 -2 -1 -2 -4 -7 -8 -10 -14 -17 -21 -23 -22 -18 -9 -4 3 1 0 0 -1 0 -1 -2 -3 -6 -8 -9 -11 -13 -15 -18 -18 -18 -14 -10 -6 0 2 2 1 1 1 1 1 2 1 0 0 -2 -2 -1 -2 -2 -2 -3 -3 -3 -3 
10 10 8 7 7 10 12 14 17 15 11 10 7 3 0 -1 -1 -1 -2 0 2 3 10 14 15 17 15 15 13 12 10 5 3 3 3 2 0 0 0 -1 0 1 3 7 10 12 14 13 12 10 7 7 5 0 -3 -11 -18 -17 -13 -6 -4 -2 -2 -2 -3 -3 -3 -5 -7 -8 -9 -12 -14 -16 -18 -16 -13 -5 -1 4 2 1 0 -1 0 -1 -2 -4 -7 -8 -8 -10 -12 -14 -15 -16 -15 -12 -9 -5 0 3 2 1 1 1 1 0 1 0 0 -1 -2 -2 -2 -1 -2 -2 -3 -3 -2 -3 
10 11 9 7 7 11 12 16 18 15 11 9 7 4 0 0 -2 -1 -2 0 2 3 9 13 16 17 16 15 13 12 10 5 3 3 3 2 0 0 0 -1 0 1 3 7 11 13 14 14 12 10 8 7 5 0 -3 -12 -18 -18 -13 -6 -4 -2 -2 -3 -3 -3 -2 -5 -8 -9 -9 -13 -15 -18 -19 -18 -14 -6 -3 4 2 1 0 -1 0 -1 -2 -3 -7 -9 -8 -11 -13 -15 -17 -17 -16 -13 -9 -5 0 2 2 1 1 1 1 0 1 0 0 -1 -2 -2 -2 -1 -2 -2 -3 -3 -2 -3 
14 15 12 10 10 14 16 20 22 21 16 13 12 7 3 0 0 0 -1 0 2 4 11 14 16 18 17 17 14 13 11 7 5 5 4 2 1 0 0 -1 0 2 3 6 11 12 15 14 11 9 6 5 2 -3 -8 -18 -23 -22 -16 -6 -3 -1 -1 -1 -1 -1 -1 -4 -7 -9 -12 -16 -19 -23 -26 -24 -21 -11 -6 2 0 0 0 0 1 0 -1 -2 -6 -8 -9 -12 -14 -16 -19 -20 -20 -16 -11 -7 -1 2 2 1 0 1 1 2 2 1 0 0 -1 -1 -1 -1 -2 -3 -3 -3 -3 -3 
17 18 14 12 13 17 19 23 26 24 19 16 14 9 3 1 0 0 0 0 2 4 11 14 16 18 18 16 15 14 13 9 6 6 5 3 1 0 1 0 0 2 3 6 10 11 14 13 11 7 4 2 -1 -7 -13 -24 -26 -25 -17 -6 -2 0 0 0 0 0 0 -4 -6 -8 -11 -18 -23 -28 -32 -30 -27 -16 -10 1 0 0 0 0 1 0 -1 -1 -5 -8 -9 -11 -14 -17 -21 -22 -23 -19 -13 -8 -2 3 2 0 0 1 2 2 2 1 0 0 0 0 0 0 -3 -4 -3 -4 -3 -3 
34 34 25 20 20 28 31 38 44 42 33 26 23 17 9 5 3 0 0 -3 -1 0 8 14 16 19 19 19 19 20 19 13 11 12 12 9 4 2 0 0 0 4 4 7 12 16 20 18 13 3 -2 -5 -13 -24 -34 -50 -51 -48 -32 -11 -2 4 6 7 7 8 8 3 -2 -3 -10 -23 -34 -50 -59 -56 -50 -33 -25 -4 -5 -3 -1 3 5 3 3 2 -3 -7 -7 -11 -16 -22 -29 -34 -36 -31 -23 -14 -4 3 0 0 -1 0 4 7 8 6 5 5 4 3 2 0 -2 -4 -5 -5 -4 -2 
62 63 43 36 36 46 53 64 76 73 57 45 43 32 18 12 6 2 -2 -7 -7 -5 7 13 18 23 27 27 30 31 30 22 19 23 21 16 9 4 0 0 0 6 6 11 18 26 31 28 18 0 -13 -20 -32 -53 -69 -97 -96 -91 -57 -19 -2 13 17 20 21 22 19 12 5 2 -9 -34 -54 -88 -105 -102 -93 -65 -48 -13 -14 -10 -1 10 11 9 9 8 -1 -7 -6 -11 -21 -31 -44 -55 -60 -56 -40 -25 -6 4 1 -4 -4 1 9 17 18 14 12 12 14 12 9 3 -4 -9 -9 -8 -5 -3 
74 74 55 46 48 62 68 81 95 91 73 60 54 41 22 16 9 5 1 -2 -2 2 17 26 32 38 39 40 40 40 38 29 25 28 27 20 11 6 2 0 0 7 6 12 20 28 35 32 21 0 -14 -20 -35 -59 -78 -110 -111 -102 -64 -19 -1 15 16 18 19 20 18 7 -3 -7 -21 -50 -74 -108 -127 -123 -113 -79 -57 -14 -13 -9 0 12 14 10 8 5 -5 -14 -14 -21 -34 -45 -61 -72 -76 -69 -51 -32 -9 4 0 -4 -6 0 10 18 20 15 13 13 13 12 8 1 -6 -12 -11 -9 -7 -4 
78 77 66 60 68 86 94 105 115 110 96 84 75 53 30 24 21 21 19 22 28 31 48 57 64 68 61 59 49 49 47 37 35 37 35 27 19 13 9 6 3 5 0 3 8 15 22 22 12 -6 -16 -20 -31 -55 -74 -101 -96 -85 -47 -7 4 11 7 6 4 2 -3 -18 -34 -41 -54 -84 -103 -127 -144 -139 -128 -90 -65 -9 -3 -1 5 14 15 8 0 -2 -17 -31 -33 -45 -60 -72 -88 -94 -93 -82 -64 -42 -19 0 -2 -6 -7 -1 6 14 17 13 10 9 8 6 1 -5 -12 -14 -11 -8 -6 -4 
71 69 70 71 87 108 113 119 122 119 114 109 95 67 43 39 40 44 46 56 65 67 74 78 82 81 66 58 42 41 41 41 44 44 43 35 28 23 18 15 6 0 -11 -21 -25 -22 -18 -14 -20 -35 -39 -38 -41 -57 -68 -76 -54 -40 -6 17 18 14 3 0 -7 -15 -24 -44 -61 -70 -85 -111 -124 -133 -147 -145 -139 -105 -79 -13 0 5 12 21 20 8 -1 -5 -22 -37 -42 -59 -76 -88 -101 -100 -98 -83 -71 -52 -30 -11 -10 -11 -12 -6 3 10 12 10 7 6 6 3 0 -11 -15 -14 -3 -1 1 1 
65 62 69 72 92 113 114 118 118 117 116 114 100 72 48 47 49 54 57 69 78 75 76 76 79 73 57 49 30 31 33 39 47 47 45 39 31 27 21 18 7 -3 -16 -33 -44 -43 -41 -36 -40 -54 -55 -53 -53 -63 -70 -67 -33 -17 13 28 26 19 5 0 -8 -17 -27 -48 -66 -75 -90 -115 -126 -129 -142 -143 -139 -112 -87 -21 0 5 16 24 22 11 0 -2 -17 -33 -38 -56 -73 -84 -97 -95 -91 -79 -69 -52 -33 -16 -15 -15 -15 -8 0 8 10 9 8 7 10 7 1 -11 -14 -10 0 4 5 6 
68 66 67 71 87 106 110 113 116 116 114 110 96 71 49 46 47 51 51 60 66 64 64 62 66 60 46 41 26 27 30 37 45 45 44 37 30 24 19 16 6 -2 -14 -32 -42 -41 -39 -35 -41 -58 -60 -60 -61 -73 -81 -79 -44 -28 5 25 25 23 14 9 0 -5 -16 -34 -52 -61 -75 -104 -119 -130 -146 -147 -143 -114 -89 -25 -8 0 14 25 23 12 5 2 -11 -25 -30 -46 -64 -75 -88 -90 -87 -78 -68 -51 -31 -15 -15 -15 -15 -6 3 12 14 13 11 12 14 11 6 -8 -13 -10 0 4 6 7 
67 65 60 59 71 86 90 97 103 102 94 89 79 58 39 34 33 35 34 37 42 41 44 46 49 48 39 36 26 29 29 32 36 37 36 31 23 18 12 10 4 0 -7 -19 -21 -20 -15 -13 -21 -39 -45 -46 -52 -67 -78 -84 -61 -48 -15 10 16 19 15 13 8 4 -4 -18 -33 -40 -53 -80 -98 -116 -132 -131 -126 -98 -76 -22 -9 -2 9 20 20 12 7 4 -7 -19 -22 -34 -49 -60 -73 -78 -77 -71 -59 -41 -22 -9 -9 -11 -12 -4 5 13 15 12 11 12 14 12 7 -4 -9 -9 -2 0 1 3 
65 63 56 54 64 79 83 90 96 96 87 80 71 51 33 30 28 28 27 29 33 32 39 42 46 46 39 37 28 29 30 30 33 34 32 27 19 15 11 9 3 1 -4 -12 -13 -10 -6 -4 -13 -30 -37 -38 -46 -60 -73 -84 -67 -55 -23 5 12 16 14 12 8 5 -1 -14 -28 -33 -47 -72 -89 -110 -125 -123 -117 -89 -69 -19 -9 -3 7 18 17 11 6 4 -7 -17 -21 -31 -45 -55 -68 -73 -74 -68 -55 -38 -19 -6 -7 -10 -10 -2 6 13 15 13 11 11 13 11 6 -3 -9 -9 -3 -1 0 1 
56 56 47 43 49 62 66 74 81 79 70 62 55 40 25 21 19 17 16 16 19 20 28 32 35 38 33 31 26 28 28 24 26 27 26 21 15 10 6 5 2 3 -1 -4 -3 1 5 5 -2 -16 -24 -27 -35 -49 -61 -76 -64 -56 -29 -1 6 12 11 12 9 7 2 -7 -18 -23 -34 -56 -71 -91 -105 -103 -96 -71 -54 -13 -8 -3 3 13 13 9 5 4 -6 -15 -16 -25 -36 -44 -56 -62 -63 -56 -44 -30 -14 -2 -4 -6 -7 -1 5 12 14 10 9 9 10 9 5 -2 -6 -8 -5 -2 -2 0 
43 44 35 30 34 43 47 54 60 58 50 42 38 28 15 11 9 7 6 6 8 9 19 24 26 29 28 27 24 25 23 18 17 19 18 13 9 6 3 2 1 3 2 3 6 10 15 14 8 -4 -10 -13 -20 -33 -44 -60 -58 -53 -32 -7 0 7 8 8 7 7 4 -2 -10 -14 -21 -39 -51 -68 -79 -76 -71 -49 -37 -7 -5 -3 0 7 9 5 2 0 -5 -12 -14 -18 -26 -33 -42 -47 -48 -44 -33 -21 -8 1 -1 -3 -3 0 4 9 10 8 6 6 5 4 3 -1 -4 -6 -6 -5 -4 -2 
28 30 22 18 20 26 29 35 39 37 30 24 21 15 7 3 2 0 0 0 1 4 12 17 20 23 22 22 21 20 17 12 9 10 10 7 4 2 0 0 0 3 3 8 13 15 20 19 14 6 1 -1 -6 -16 -25 -40 -44 -41 -27 -9 -3 1 2 2 4 4 3 0 -5 -7 -13 -23 -32 -43 -50 -48 -42 -28 -18 0 -2 -2 0 2 4 1 0 0 -5 -9 -10 -13 -19 -22 -29 -33 -32 -29 -21 -13 -3 2 2 0 0 0 3 5 6 4 3 1 1 0 0 -1 -3 -5 -6 -6 -4 -4 
15 17 7 2 0 2 5 11 16 14 6 0 1 0 -4 -6 -9 -12 -13 -15 -14 -11 -2 3 5 9 13 14 17 15 13 5 0 0 0 0 -3 -4 -3 -4 -1 4 8 17 24 28 32 29 26 21 15 12 6 -1 -10 -26 -38 -40 -33 -17 -9 -2 0 2 4 7 8 6 6 6 3 -1 -7 -17 -21 -19 -13 -3 0 4 -1 -2 -4 -3 -1 0 0 0 -3 -5 -3 -3 -5 -7 -11 -14 -15 -13 -6 -1 4 7 5 3 2 2 3 3 4 2 1 0 0 0 0 1 0 -3 -6 -6 -5 -5 
18 19 5 0 -6 -6 -2 4 10 8 -2 -9 -6 -4 -6 -10 -13 -18 -20 -28 -29 -25 -14 -7 -6 0 6 10 17 16 13 3 -3 -1 0 -2 -4 -5 -6 -5 -2 5 10 22 31 37 41 37 32 26 17 13 6 -4 -13 -36 -52 -54 -43 -23 -12 -1 3 5 10 15 16 18 20 20 18 12 3 -14 -18 -14 -10 0 3 2 -3 -5 -5 -3 0 0 0 0 0 0 2 3 4 2 -2 -7 -11 -11 -4 0 5 9 7 3 3 3 4 6 6 4 2 3 1 1 1 3 -1 -4 -8 -8 -7 -6 
16 19 2 -4 -11 -12 -8 -1 5 2 -7 -14 -10 -6 -7 -11 -16 -21 -24 -32 -36 -32 -21 -14 -14 -7 1 4 14 14 10 0 -5 -3 -2 -4 -6 -6 -7 -5 -2 5 10 23 33 38 43 39 34 27 19 14 5 -4 -14 -36 -53 -56 -46 -24 -12 -1 5 8 13 18 20 24 26 27 25 21 11 -8 -12 -10 -4 3 4 1 -5 -7 -6 -4 0 1 2 3 2 3 6 9 10 8 4 -2 -6 -8 0 3 8 9 7 4 3 3 5 7 7 5 3 4 2 2 2 4 0 -3 -7 -8 -6 -6 
13 14 2 -3 -9 -9 -7 -1 3 2 -5 -12 -8 -5 -6 -9 -11 -16 -18 -25 -27 -24 -16 -12 -10 -4 1 4 10 10 8 0 -3 -2 -2 -3 -4 -5 -5 -4 -1 4 8 18 26 29 33 30 26 22 15 11 4 -3 -10 -27 -40 -43 -36 -19 -10 -1 3 6 10 14 16 18 20 20 20 15 8 -5 -10 -8 -3 3 3 2 -4 -4 -5 -3 -1 0 1 2 2 2 4 8 7 6 3 -2 -5 -5 0 2 5 7 5 3 2 2 3 5 5 3 2 2 1 1 1 3 0 -2 -6 -6 -6 -4 
2 3 1 0 -3 -2 -1 0 2 0 -2 -3 -4 -2 -4 -4 -6 -6 -7 -7 -6 -5 0 1 3 5 7 7 8 7 5 1 -1 -1 -1 0 -1 -1 -1 -1 0 1 3 8 12 13 15 14 13 14 12 10 9 6 3 -4 -12 -14 -12 -7 -4 -2 -2 -3 -1 0 0 1 1 1 2 1 0 -1 0 0 3 6 6 4 2 0 -1 -2 -1 -1 -2 -3 -4 -4 -2 -2 -2 -2 -2 -4 -3 -3 0 0 1 2 2 2 0 0 1 0 0 0 0 -1 -2 -2 -2 0 0 -1 -2 -2 -2 -3 
0 0 0 -2 -2 -3 -2 -1 -1 -2 -3 -5 -3 -3 -4 -4 -4 -4 -4 -4 -3 -2 2 4 6 7 8 7 6 5 3 0 -1 -2 -2 -2 0 -1 -1 -1 0 1 2 6 10 11 12 11 11 13 13 13 11 10 7 2 -4 -6 -7 -4 -3 -4 -4 -5 -4 -3 -2 -2 -1 -2 -1 1 0 2 3 5 6 8 8 6 3 2 -1 -2 -2 -2 -4 -4 -5 -4 -4 -5 -3 -3 -2 -2 -1 0 0 0 1 1 2 1 1 0 0 -1 0 -1 -1 -2 -4 -4 -3 -1 -1 0 -2 -2 -2 -2 
-4 -2 -2 -2 -3 -3 -2 -2 -3 -4 -4 -4 -5 -5 -5 -6 -4 -3 -3 -2 0 1 6 8 9 10 9 9 7 4 3 0 -2 -2 -2 -2 -2 0 0 0 0 0 1 5 9 8 10 9 11 14 15 15 16 14 13 9 1 0 -2 -2 -3 -6 -7 -8 -9 -8 -6 -6 -6 -6 -3 -1 0 7 8 11 11 13 11 8 6 4 0 -3 -3 -4 -6 -6 -7 -7 -7 -6 -6 -4 -2 -1 0 1 1 0 1 0 1 2 1 0 0 -2 -2 -2 -3 -4 -6 -6 -5 -2 -2 -1 -1 -1 -1 -2 
-5 -5 -3 -3 -5 -5 -4 -4 -5 -7 -6 -6 -6 -6 -6 -5 -5 -4 -3 -1 0 2 6 8 9 10 9 9 7 5 4 0 -3 -3 -2 -2 -2 -1 0 0 0 0 1 6 8 9 10 10 11 15 15 16 17 17 17 13 4 1 -1 -2 -5 -6 -8 -9 -10 -9 -7 -7 -6 -6 -4 0 1 8 12 13 14 15 13 9 7 5 0 -4 -3 -4 -7 -7 -7 -7 -7 -7 -6 -4 -2 -1 0 2 2 1 1 1 1 2 2 0 -1 -2 -3 -2 -3 -4 -7 -7 -6 -2 -2 -1 -2 -1 -1 -2 
-6 -5 -3 -3 -5 -6 -5 -5 -6 -8 -7 -7 -7 -6 -5 -6 -5 -4 -4 -1 0 0 4 6 7 8 8 7 5 3 2 0 -3 -3 -3 -3 -2 -1 0 -1 0 0 0 5 9 9 9 10 10 14 15 16 16 15 16 12 3 0 -1 -2 -4 -6 -7 -8 -8 -7 -5 -4 -4 -4 -2 0 3 9 12 13 15 15 13 8 6 4 0 -4 -4 -4 -6 -6 -6 -6 -6 -5 -4 -2 0 0 1 3 2 1 1 0 1 2 1 0 0 -2 -2 -2 -3 -4 -6 -6 -5 -2 -2 -1 -1 -1 -1 -2 
-4 -4 -3 -3 -5 -5 -4 -4 -5 -6 -6 -6 -6 -6 -6 -6 -5 -4 -4 -2 0 0 5 7 8 9 8 8 7 5 3 0 -3 -3 -3 -2 -2 -1 0 0 0 0 1 6 9 9 10 11 12 15 15 16 16 16 15 11 2 0 -2 -3 -4 -6 -8 -9 -9 -7 -6 -6 -5 -5 -3 0 1 8 11 13 12 14 12 8 6 4 0 -3 -3 -4 -6 -7 -6 -7 -6 -6 -5 -3 -2 0 0 2 2 1 1 1 1 2 1 0 0 -2 -2 -2 -3 -4 -6 -6 -5 -2 -2 -1 -1 -2 -1 -2 
-5 -3 -1 -3 -4 -4 -3 -3 -4 -5 -5 -5 -6 -5 -6 -6 -6 -5 -5 -3 -1 0 5 8 10 12 12 10 9 6 5 0 -2 -3 -2 -2 -2 -1 0 0 0 0 2 8 11 11 13 14 14 17 18 18 18 18 16 10 1 -2 -4 -5 -5 -7 -9 -10 -9 -8 -7 -7 -5 -5 -4 0 1 8 10 12 14 15 13 9 7 5 0 -4 -3 -4 -7 -8 -7 -8 -7 -8 -6 -4 -3 -2 0 1 2 1 1 2 2 2 2 0 -1 -3 -3 -2 -3 -5 -7 -7 -6 -2 -2 -1 -3 -2 -3 -3 
-6 -4 -3 -4 -6 -6 -5 -5 -5 -7 -7 -8 -7 -8 -7 -7 -7 -6 -6 -3 -3 0 3 7 9 10 10 9 8 6 4 0 -3 -3 -4 -3 -2 -1 0 -1 0 0 2 8 13 13 14 14 16 18 19 19 20 18 18 12 1 -1 -5 -5 -6 -7 -9 -10 -9 -8 -5 -5 -5 -4 -3 1 3 10 13 15 16 18 14 9 7 5 0 -5 -5 -5 -7 -8 -7 -7 -7 -7 -6 -4 -1 -1 0 2 2 2 2 2 2 2 2 0 -1 -3 -3 -3 -3 -5 -7 -7 -6 -2 -1 -1 -3 -2 -3 -4 
-11 -8 -7 -8 -11 -12 -12 -12 -13 -14 -14 -14 -13 -11 -9 -10 -9 -8 -8 -6 -4 -3 1 2 4 4 6 6 5 3 1 -2 -6 -6 -7 -5 -4 -3 -1 -2 0 0 3 9 13 13 14 14 15 21 21 21 22 21 21 17 6 2 -3 -6 -6 -8 -9 -10 -9 -7 -5 -3 -2 -1 1 6 10 18 21 23 24 23 19 10 7 4 0 -6 -6 -5 -7 -7 -6 -5 -5 -3 -1 0 2 5 6 8 7 5 3 3 2 3 3 0 -1 -3 -4 -3 -4 -5 -7 -7 -7 -1 0 0 -2 -1 -2 -3 
-18 -17 -15 -16 -20 -24 -24 -24 -26 -28 -27 -26 -24 -19 -14 -14 -13 -12 -12 -11 -11 -8 -5 -4 -3 -1 0 0 0 0 -2 -5 -11 -12 -11 -10 -7 -5 -3 -4 -1 0 4 10 14 14 14 14 17 23 25 25 27 28 30 27 15 8 0 -7 -8 -11 -10 -10 -8 -6 -3 0 2 4 9 19 23 32 38 39 39 35 29 12 7 4 -2 -8 -8 -6 -7 -7 -5 -1 -1 1 5 8 13 16 17 17 14 10 7 4 5 5 5 1 -1 -4 -4 -4 -5 -6 -8 -8 -7 0 0 0 -2 -1 -3 -4 
-28 -28 -26 -26 -30 -37 -39 -41 -44 -44 -42 -39 -35 -26 -19 -17 -17 -16 -16 -16 -17 -16 -15 -13 -15 -13 -10 -10 -5 -7 -10 -11 -15 -16 -16 -14 -10 -8 -5 -5 -1 0 4 10 14 13 13 11 16 23 26 27 30 36 39 39 25 18 5 -6 -9 -10 -11 -10 -7 -5 -1 4 10 13 19 33 40 50 58 59 57 46 37 13 7 4 -3 -10 -9 -6 -5 -5 0 3 4 10 16 20 28 30 31 29 23 18 10 4 4 6 5 1 -2 -6 -7 -6 -6 -7 -8 -7 -5 0 3 2 0 0 -1 -2 
-41 -40 -37 -37 -44 -55 -58 -61 -65 -63 -60 -55 -49 -35 -24 -21 -20 -21 -21 -23 -26 -26 -29 -30 -32 -31 -25 -24 -17 -18 -19 -20 -23 -23 -22 -19 -15 -11 -8 -7 -2 0 5 11 13 11 9 9 12 24 28 29 31 42 47 53 37 29 9 -7 -10 -11 -9 -7 -4 -1 2 12 21 26 34 52 61 74 83 83 80 61 47 13 5 2 -5 -12 -11 -6 -3 -1 5 12 14 22 32 39 47 49 50 44 37 26 14 5 5 6 7 2 -3 -8 -9 -7 -6 -7 -8 -6 -3 2 6 5 1 0 -1 -1 
-43 -42 -40 -41 -48 -61 -63 -68 -70 -69 -64 -60 -53 -38 -24 -21 -21 -22 -23 -27 -31 -31 -36 -39 -41 -42 -35 -31 -22 -23 -23 -22 -24 -25 -24 -21 -15 -11 -8 -7 -3 -1 4 9 11 9 6 5 9 19 23 24 27 37 45 51 39 31 10 -6 -9 -9 -5 -3 0 3 8 19 28 33 42 59 69 78 87 87 82 62 47 9 2 0 -5 -11 -11 -4 0 0 9 18 20 29 40 46 55 56 55 48 40 29 15 5 6 6 6 2 -2 -6 -8 -7 -4 -5 -5 -4 -1 4 8 7 3 1 0 0 
-40 -40 -41 -41 -50 -63 -66 -70 -71 -69 -66 -63 -54 -38 -23 -20 -22 -24 -25 -32 -38 -39 -45 -48 -51 -51 -42 -37 -26 -25 -25 -23 -25 -25 -24 -20 -16 -13 -9 -8 -3 0 5 9 11 10 6 4 8 15 18 17 18 28 35 42 30 23 5 -8 -9 -6 0 2 6 11 16 28 38 43 52 66 72 77 84 83 78 57 42 5 -1 -3 -6 -10 -10 -3 2 4 15 24 27 37 47 53 60 60 56 49 41 30 17 6 5 5 7 3 -1 -4 -6 -4 -2 -2 -1 0 1 7 9 7 2 0 0 0 
-28 -27 -35 -37 -46 -59 -62 -64 -62 -59 -59 -58 -48 -31 -18 -15 -20 -25 -27 -39 -48 -50 -57 -61 -65 -63 -51 -44 -30 -27 -26 -23 -22 -22 -20 -16 -14 -12 -11 -8 -2 0 4 8 10 9 6 3 3 5 5 1 0 7 13 16 10 6 -6 -10 -7 0 11 15 22 25 29 41 53 58 63 71 72 62 65 63 60 41 29 -3 -11 -12 -8 -5 -4 2 11 13 23 33 36 47 56 60 63 58 53 42 37 28 16 5 5 2 3 2 1 0 0 0 2 3 6 7 9 10 11 8 3 1 0 1 
-16 -16 -29 -31 -41 -54 -57 -58 -53 -49 -51 -51 -41 -23 -11 -8 -15 -22 -27 -42 -53 -57 -66 -73 -78 -77 -63 -54 -36 -30 -29 -22 -18 -17 -16 -13 -12 -11 -10 -7 -1 0 4 3 3 5 1 -1 -4 -7 -11 -16 -20 -14 -10 -5 -5 -9 -13 -10 -3 9 24 29 35 40 42 55 64 70 73 73 70 48 47 43 39 22 12 -16 -21 -19 -7 0 0 8 20 23 33 42 47 57 65 67 68 57 50 36 33 25 15 4 1 0 0 1 4 5 5 5 8 12 15 17 17 15 14 10 6 3 2 5 
-12 -12 -28 -30 -41 -54 -55 -56 -49 -45 -48 -50 -41 -23 -9 -8 -16 -23 -28 -46 -58 -61 -70 -78 -80 -79 -64 -55 -36 -30 -28 -21 -18 -18 -16 -14 -11 -12 -11 -8 -2 0 5 4 5 7 3 0 -4 -8 -14 -18 -23 -19 -16 -12 -13 -15 -18 -12 -4 11 27 33 39 43 46 59 69 75 75 75 69 44 42 38 34 20 11 -17 -24 -21 -8 0 0 8 21 24 34 44 48 58 65 68 68 55 48 33 32 23 15 5 2 0 1 2 5 7 7 7 10 15 16 18 18 16 14 9 5 2 2 4 
-15 -15 -31 -34 -47 -61 -63 -62 -57 -52 -57 -59 -48 -28 -15 -14 -20 -29 -34 -51 -63 -67 -73 -79 -82 -80 -64 -53 -34 -29 -27 -24 -22 -21 -19 -16 -14 -15 -13 -10 -3 1 8 10 13 15 12 7 4 0 -4 -10 -15 -12 -9 -9 -14 -19 -23 -17 -7 8 24 30 38 44 46 61 72 78 81 81 76 51 49 47 44 29 18 -13 -22 -20 -10 -2 -1 6 19 22 34 43 48 60 69 71 71 60 51 37 35 27 18 7 4 0 1 2 5 7 6 5 9 12 14 15 16 16 14 9 4 0 0 3 
-21 -19 -35 -39 -52 -67 -67 -67 -62 -58 -64 -65 -55 -34 -20 -19 -26 -33 -38 -54 -65 -67 -70 -74 -76 -72 -57 -48 -28 -24 -25 -23 -24 -25 -22 -19 -18 -16 -14 -11 -3 1 9 16 21 23 21 16 14 13 8 3 -1 0 2 -1 -12 -17 -24 -21 -11 2 17 23 31 37 42 57 68 73 80 83 79 60 60 59 56 41 29 -6 -16 -16 -11 -5 -4 3 14 18 29 38 44 56 65 68 70 61 53 41 38 30 20 10 7 3 4 4 4 3 3 2 4 8 9 10 12 14 13 8 1 -2 -1 -1 
-20 -18 -34 -38 -51 -64 -65 -64 -58 -57 -62 -65 -54 -36 -22 -21 -28 -35 -39 -54 -64 -64 -66 -67 -69 -66 -50 -41 -23 -20 -21 -22 -23 -24 -22 -19 -17 -16 -15 -11 -3 1 10 19 26 28 27 21 19 18 14 9 4 6 7 0 -14 -20 -27 -22 -13 0 14 20 28 33 38 51 63 69 74 79 76 59 59 58 56 44 32 -2 -13 -15 -10 -7 -6 1 11 15 24 33 39 50 59 63 64 56 49 38 37 29 20 10 7 4 6 4 3 3 1 2 3 5 6 7 9 13 12 7 0 -3 -2 -1 
-7 -5 -26 -34 -48 -60 -57 -53 -44 -44 -54 -60 -50 -32 -21 -23 -30 -40 -45 -61 -71 -69 -65 -63 -64 -57 -40 -31 -10 -9 -11 -17 -22 -21 -20 -19 -17 -17 -16 -13 -4 4 14 29 40 44 46 38 34 31 20 15 6 1 -2 -19 -41 -47 -48 -31 -17 0 14 21 29 38 43 56 66 70 73 75 68 42 40 42 42 37 27 -1 -15 -17 -12 -8 -5 2 11 13 21 30 35 45 54 56 55 44 36 27 29 25 21 14 10 5 6 5 5 6 5 4 5 7 6 7 10 13 11 5 -4 -6 -6 -4 
9 12 -17 -30 -47 -56 -53 -43 -30 -31 -48 -59 -47 -31 -24 -27 -39 -49 -56 -77 -86 -83 -69 -62 -61 -50 -30 -21 2 3 0 -12 -22 -20 -18 -18 -19 -20 -19 -17 -5 8 21 42 59 69 72 63 56 46 34 23 9 -3 -15 -48 -78 -86 -78 -47 -25 0 16 25 37 46 52 64 75 80 81 75 61 25 19 23 27 31 26 0 -16 -19 -16 -9 -5 2 11 15 20 27 33 45 51 51 47 32 23 13 22 23 24 20 15 7 6 7 9 10 10 7 7 9 8 10 11 15 9 1 -9 -12 -11 -9 
19 23 -10 -25 -42 -51 -45 -35 -18 -19 -40 -52 -42 -26 -21 -26 -38 -51 -58 -81 -90 -86 -72 -64 -62 -50 -28 -18 5 7 3 -9 -18 -17 -16 -16 -18 -19 -19 -17 -5 9 22 45 63 73 78 68 60 46 29 18 1 -14 -29 -65 -97 -104 -90 -51 -26 3 20 30 43 54 59 70 79 84 82 72 55 11 1 6 12 20 17 -3 -20 -22 -16 -7 -2 5 14 17 21 28 35 45 52 49 41 24 14 5 16 18 23 20 15 7 6 7 12 15 14 10 10 12 11 13 13 17 10 0 -10 -13 -10 -9 
27 29 -4 -16 -31 -38 -34 -22 -5 -6 -26 -39 -29 -17 -13 -17 -30 -41 -50 -71 -81 -78 -66 -61 -60 -49 -30 -19 3 7 3 -7 -12 -10 -10 -11 -14 -16 -16 -13 -4 8 19 37 52 62 65 56 46 31 14 2 -13 -28 -41 -76 -98 -101 -84 -44 -20 7 25 34 46 54 58 67 74 79 75 61 42 -3 -15 -12 -5 2 4 -9 -24 -24 -13 -3 0 8 17 20 24 29 34 45 47 45 36 17 7 -1 9 14 18 17 12 4 4 5 12 16 16 13 14 15 16 17 17 17 9 0 -9 -11 -8 -6 
25 27 0 -8 -19 -25 -21 -12 0 1 -14 -25 -16 -7 -6 -10 -19 -29 -36 -54 -62 -61 -54 -51 -50 -42 -26 -18 0 4 1 -3 -6 -4 -4 -6 -8 -11 -11 -9 -2 6 13 25 36 43 45 38 29 15 1 -6 -20 -34 -43 -68 -82 -83 -64 -32 -13 10 25 32 41 46 49 56 61 64 60 46 29 -11 -20 -19 -14 -7 -5 -13 -23 -21 -9 0 3 10 18 20 21 26 30 37 38 35 28 12 2 -5 4 8 13 12 8 0 0 3 10 15 15 13 13 16 17 17 15 13 7 0 -6 -7 -4 -3 
23 26 2 -4 -14 -17 -13 -6 4 5 -8 -17 -12 -5 -4 -8 -16 -23 -29 -44 -51 -49 -42 -39 -37 -30 -18 -11 4 6 4 -1 -4 -2 -2 -3 -6 -8 -9 -7 -2 6 12 22 32 37 41 34 27 14 3 -5 -16 -28 -37 -59 -71 -72 -57 -27 -11 8 20 26 32 39 40 45 49 50 47 34 19 -13 -22 -20 -15 -7 -5 -10 -17 -17 -8 0 3 7 13 15 15 19 23 27 28 25 18 5 -2 -7 0 4 9 10 7 0 1 3 9 13 13 10 11 13 13 13 12 11 5 0 -6 -7 -4 -3 
22 24 7 0 -5 -6 -3 2 11 11 0 -7 -3 0 -2 -5 -11 -16 -20 -30 -35 -33 -26 -22 -21 -16 -7 -3 8 9 6 1 -2 0 0 -2 -4 -5 -6 -5 -1 5 8 16 25 31 32 27 22 11 2 -3 -12 -22 -31 -50 -59 -59 -45 -22 -9 7 14 18 23 27 28 31 33 33 29 19 7 -17 -25 -24 -20 -10 -7 -7 -13 -12 -4 0 2 6 9 9 9 11 13 15 16 12 6 -3 -8 -12 -4 0 5 7 4 0 0 2 7 9 11 8 7 8 9 9 8 7 2 -2 -5 -6 -5 -3 
26 27 9 2 -1 -2 1 7 16 15 4 -4 0 2 0 -2 -9 -15 -18 -27 -31 -30 -22 -19 -18 -13 -5 0 8 10 8 3 0 1 1 0 -3 -5 -5 -5 -1 5 9 15 23 28 31 27 20 10 0 -4 -14 -25 -35 -53 -61 -61 -45 -21 -8 6 15 18 23 27 27 28 29 29 26 14 2 -22 -31 -30 -25 -16 -11 -7 -13 -12 -5 1 3 6 9 9 8 9 11 13 12 9 3 -8 -12 -15 -6 0 5 7 5 0 0 2 7 10 11 8 8 9 9 9 8 7 2 -2 -5 -6 -5 -3 
28 30 9 2 -3 -2 1 8 17 16 4 -3 -1 1 0 -3 -10 -16 -20 -31 -35 -33 -26 -22 -21 -14 -6 0 9 11 10 3 0 1 2 0 -3 -5 -6 -6 -2 5 10 18 25 31 34 29 22 10 0 -5 -16 -27 -38 -58 -67 -66 -49 -23 -8 7 16 21 26 29 30 31 33 34 29 16 2 -24 -33 -31 -27 -16 -12 -9 -14 -13 -5 1 4 7 10 10 10 9 12 15 14 10 2 -7 -13 -15 -6 0 6 8 5 0 0 3 7 11 11 9 8 10 10 10 9 7 2 -2 -6 -7 -5 -3 
31 33 9 0 -10 -12 -7 2 16 14 -2 -14 -8 -4 -6 -9 -19 -26 -32 -46 -52 -49 -37 -31 -28 -19 -7 0 14 15 12 2 -4 0 0 -3 -6 -8 -10 -8 -2 7 15 28 41 49 54 46 38 25 11 3 -11 -26 -39 -69 -86 -87 -68 -33 -15 6 17 23 31 37 39 42 46 46 42 28 12 -23 -33 -29 -24 -10 -5 -6 -16 -17 -8 0 2 6 11 11 11 13 16 21 21 17 7 -4 -12 -16 -5 1 10 13 8 3 2 4 9 14 14 10 10 11 11 11 10 10 3 -3 -9 -9 -8 -5 
36 38 11 1 -8 -9 -3 7 21 19 1 -10 -6 -2 -5 -10 -19 -28 -34 -48 -53 -49 -35 -27 -24 -15 -2 4 18 20 16 4 -3 -1 0 -3 -7 -8 -10 -9 -3 8 16 31 46 55 61 53 44 29 15 6 -9 -26 -42 -75 -95 -98 -74 -37 -16 5 17 22 31 37 39 42 44 46 40 25 6 -29 -40 -36 -29 -12 -7 -5 -16 -15 -9 0 2 6 9 10 9 10 13 18 17 12 3 -11 -18 -21 -8 1 10 15 10 2 2 5 10 14 15 11 11 11 11 11 10 8 3 -5 -11 -12 -9 -8 
38 40 15 4 -4 -2 2 13 28 25 7 -4 -2 1 -3 -8 -17 -25 -31 -43 -49 -45 -31 -23 -20 -11 0 6 19 20 17 6 -1 1 1 -1 -5 -8 -9 -9 -3 8 15 29 42 51 56 49 40 25 11 2 -12 -30 -45 -78 -95 -95 -72 -35 -15 7 17 23 30 36 38 39 40 41 35 18 0 -36 -48 -45 -37 -19 -12 -7 -16 -16 -8 0 3 6 11 11 9 9 12 15 13 8 -2 -15 -22 -23 -10 -1 9 13 8 2 1 4 10 15 15 11 10 11 11 11 10 9 2 -5 -10 -11 -9 -6 
35 37 16 7 1 3 8 17 29 27 12 2 4 5 0 -4 -12 -17 -22 -31 -35 -33 -21 -15 -12 -5 3 6 17 18 16 6 1 3 3 0 -3 -6 -7 -6 -2 6 11 22 32 39 43 39 30 17 5 -1 -13 -30 -41 -69 -80 -79 -59 -28 -11 5 15 20 25 30 30 30 31 30 24 8 -5 -37 -47 -45 -39 -22 -15 -6 -13 -13 -6 1 4 6 9 10 7 6 7 9 7 2 -6 -16 -22 -24 -13 -3 5 10 7 1 1 4 8 12 12 10 9 10 10 10 9 7 0 -3 -8 -9 -7 -5 
24 26 9 1 -5 -3 0 7 17 13 1 -6 -4 -2 -5 -10 -15 -20 -23 -31 -35 -31 -18 -12 -8 -2 6 10 18 19 15 4 -2 0 0 -2 -5 -6 -6 -6 -2 6 12 24 35 42 46 40 35 26 17 11 1 -12 -23 -48 -65 -67 -53 -27 -13 1 7 11 16 20 22 24 24 26 22 14 1 -20 -27 -24 -18 -5 -1 0 -7 -8 -6 -2 0 2 3 3 1 2 5 6 6 3 -3 -11 -15 -16 -7 0 7 11 7 3 2 3 6 8 9 5 5 5 4 4 3 4 0 -4 -9 -9 -8 -6 
11 14 2 -5 -10 -12 -8 -2 3 0 -8 -14 -11 -7 -9 -12 -15 -19 -21 -29 -30 -27 -16 -9 -9 -2 5 7 14 13 10 0 -4 -3 -3 -4 -6 -5 -7 -5 -1 4 9 22 31 36 40 35 32 28 21 16 9 0 -7 -28 -45 -48 -40 -22 -12 -2 1 3 8 12 15 17 19 21 20 16 10 -3 -7 -4 0 8 8 5 -2 -4 -5 -4 -1 0 0 0 0 1 2 5 7 6 3 -2 -4 -6 0 3 7 8 6 3 2 2 4 4 4 2 1 0 0 0 0 3 0 -3 -7 -7 -7 -6 
-3 -2 -4 -8 -12 -13 -12 -9 -8 -10 -14 -16 -14 -11 -10 -10 -12 -13 -13 -14 -13 -11 -3 0 0 3 7 7 8 7 5 -1 -6 -6 -6 -5 -4 -5 -3 -4 0 2 5 14 20 22 25 22 22 25 24 21 19 17 14 3 -10 -14 -15 -11 -8 -7 -6 -6 -4 0 0 2 4 5 7 10 11 11 14 15 18 20 18 10 5 1 -2 -6 -5 -3 -5 -5 -4 -4 -2 0 0 1 1 2 2 4 5 5 5 4 4 4 3 1 0 -1 -1 -1 -2 -3 -5 -5 -5 0 0 -1 -4 -4 -3 -4 
-9 -7 -7 -8 -10 -11 -10 -10 -11 -12 -13 -14 -13 -11 -10 -11 -9 -9 -8 -7 -4 -3 2 5 7 9 10 9 10 6 5 -1 -5 -6 -6 -5 -4 -3 -2 -2 0 1 4 12 17 17 18 18 19 24 25 25 26 24 22 15 1 -1 -6 -7 -7 -9 -11 -12 -11 -9 -6 -5 -4 -3 0 5 9 15 20 22 23 24 20 13 9 5 -1 -7 -6 -6 -9 -8 -8 -7 -6 -6 -4 -1 0 2 3 6 5 4 4 3 4 4 3 0 -1 -2 -3 -3 -4 -6 -9 -8 -8 -2 -2 0 -3 -3 -3 -4 
-8 -7 -4 -5 -7 -7 -6 -6 -7 -9 -9 -9 -9 -9 -9 -9 -8 -6 -6 -3 -1 0 6 10 11 14 13 11 10 6 5 0 -5 -5 -5 -4 -3 -1 0 -1 0 0 3 10 14 14 16 16 18 22 23 23 24 24 22 15 4 0 -4 -5 -6 -9 -12 -13 -12 -11 -9 -9 -8 -7 -5 0 4 12 16 19 20 21 18 12 9 7 0 -6 -6 -6 -9 -10 -10 -9 -9 -9 -7 -5 -2 0 1 3 3 2 2 3 3 3 2 0 -1 -4 -4 -4 -5 -6 -9 -9 -8 -2 -2 -1 -3 -3 -3 -4 
2 2 2 3 5 6 5 5 4 5 5 6 5 3 3 3 2 3 4 4 3 3 1 1 0 0 0 -1 -1 -1 0 0 2 2 2 2 1 1 0 1 0 0 0 -2 -5 -5 -6 -4 -4 -6 -6 -6 -5 -4 -5 -3 1 2 3 2 1 1 1 1 0 0 0 0 -1 -1 -2 -4 -5 -6 -7 -7 -8 -7 -6 -2 0 0 0 1 1 1 1 1 0 0 0 0 0 -2 -2 -3 -2 -3 -2 -1 -1 0 0 0 0 0 0 0 0 0 0 0 1 1 1 0 0 0 0 0 0 0 
11 11 8 11 15 15 14 13 14 16 18 19 18 15 14 14 13 13 12 10 8 4 -3 -8 -10 -12 -13 -13 -12 -8 -5 1 8 8 9 7 6 4 3 3 1 -1 -6 -17 -23 -23 -27 -26 -28 -34 -35 -35 -34 -32 -30 -20 -2 3 10 10 11 12 15 16 15 11 8 7 5 4 0 -7 -12 -21 -26 -29 -32 -32 -27 -17 -12 -7 2 9 8 8 12 11 12 11 9 7 5 3 0 -3 -4 -8 -8 -6 -5 -5 -6 -6 -4 -1 1 4 6 6 6 9 11 11 10 2 2 2 5 4 5 6 
15 13 11 16 20 21 18 15 17 21 26 27 26 23 24 26 24 22 21 17 13 6 -10 -21 -25 -30 -32 -29 -27 -20 -15 1 12 13 12 12 10 7 5 6 3 -3 -11 -31 -43 -45 -51 -49 -52 -61 -61 -62 -60 -56 -51 -29 2 11 21 21 21 23 28 29 26 22 15 15 12 11 4 -6 -13 -27 -35 -42 -46 -51 -45 -32 -22 -14 4 17 14 15 21 22 23 22 21 19 15 11 7 1 -1 -8 -10 -9 -8 -10 -11 -12 -9 -3 3 8 9 10 12 17 21 21 19 6 4 4 11 10 9 12 
32 27 21 30 40 40 33 27 31 41 49 53 51 47 49 53 49 45 42 32 21 6 -26 -49 -56 -67 -69 -63 -57 -44 -31 0 25 24 24 24 20 15 12 12 6 -7 -23 -63 -87 -91 -102 -98 -105 -124 -126 -126 -125 -116 -104 -63 2 20 42 42 41 49 60 61 56 47 36 34 30 28 16 -9 -23 -54 -70 -82 -93 -101 -91 -66 -47 -30 9 36 30 31 45 46 48 46 46 42 35 29 18 6 -1 -14 -17 -18 -18 -22 -23 -26 -19 -7 6 19 21 22 26 36 45 44 39 14 10 10 23 21 22 27 
43 37 30 39 50 51 45 39 45 57 64 65 63 58 58 63 56 51 50 36 24 8 -27 -52 -60 -72 -74 -68 -61 -45 -34 3 31 31 31 30 26 18 15 14 7 -7 -26 -70 -97 -102 -112 -110 -119 -143 -144 -145 -145 -137 -127 -81 -7 15 42 47 47 57 70 71 66 55 41 39 34 30 16 -15 -32 -72 -91 -105 -116 -122 -109 -77 -54 -35 10 42 36 36 52 52 53 52 51 45 37 28 15 0 -7 -24 -24 -24 -22 -24 -27 -29 -22 -9 9 23 26 25 32 42 52 51 46 15 11 10 26 24 24 31 
45 39 32 42 53 55 49 43 49 60 68 69 66 59 59 63 58 53 51 39 27 11 -23 -48 -55 -68 -70 -64 -58 -42 -30 5 32 32 32 31 26 19 15 15 7 -7 -26 -70 -97 -100 -112 -108 -116 -141 -144 -143 -144 -137 -126 -82 -9 12 41 47 47 57 67 70 63 52 40 37 29 26 11 -20 -38 -75 -96 -109 -120 -125 -110 -75 -53 -33 11 42 35 36 51 51 52 49 48 42 33 24 10 -4 -11 -27 -27 -26 -23 -25 -27 -29 -23 -9 8 22 25 26 31 41 52 50 45 14 10 9 24 22 24 31 
30 24 18 27 34 33 27 20 25 37 44 46 46 44 48 52 47 42 40 28 13 -1 -35 -59 -66 -77 -77 -71 -63 -48 -37 -2 23 22 23 23 20 13 11 11 5 -6 -23 -62 -87 -91 -103 -100 -107 -127 -129 -131 -128 -119 -108 -65 0 20 41 42 41 51 64 66 62 52 42 42 39 38 25 0 -14 -48 -66 -78 -90 -100 -91 -70 -50 -33 8 37 30 32 48 50 53 53 53 50 44 38 27 13 6 -11 -13 -15 -16 -21 -23 -26 -19 -7 7 20 22 22 28 37 48 47 42 15 12 11 24 22 22 29 
23 17 11 21 28 24 17 10 14 25 35 38 39 40 45 52 46 41 38 26 11 -3 -42 -67 -75 -86 -86 -78 -69 -54 -42 -6 20 19 19 20 18 12 10 11 5 -7 -22 -64 -90 -94 -107 -104 -110 -129 -129 -130 -128 -116 -103 -55 11 28 45 42 42 51 64 66 63 54 44 45 44 43 32 8 -4 -37 -52 -65 -78 -92 -85 -69 -50 -35 7 35 30 34 49 51 57 57 57 56 52 46 37 22 15 -2 -7 -11 -14 -21 -23 -25 -19 -7 6 19 20 21 28 37 47 47 43 17 14 13 26 23 22 29 
19 12 10 22 30 26 18 9 11 23 35 42 41 42 48 54 50 45 44 32 17 0 -39 -67 -75 -89 -90 -83 -75 -60 -47 -7 21 20 20 21 19 14 12 12 6 -8 -25 -70 -99 -104 -118 -115 -120 -137 -136 -136 -132 -117 -102 -49 22 42 55 49 46 52 65 67 61 51 40 42 41 39 29 6 -3 -33 -48 -62 -76 -94 -88 -72 -50 -33 9 37 30 34 50 53 57 59 59 57 52 47 39 25 19 0 -5 -11 -16 -24 -25 -27 -20 -8 6 18 20 20 27 38 48 47 43 17 14 15 28 25 25 31 
4 -1 3 17 25 21 12 2 0 10 26 35 34 34 41 48 47 45 45 39 27 12 -27 -53 -62 -75 -79 -74 -71 -57 -46 -8 18 16 17 18 17 14 13 13 5 -10 -26 -69 -97 -105 -118 -113 -116 -126 -121 -118 -111 -92 -73 -19 48 65 70 52 43 42 51 51 45 35 24 27 26 24 18 2 -1 -17 -25 -38 -53 -74 -71 -59 -40 -24 10 31 24 26 41 42 48 50 48 46 43 40 36 28 25 9 0 -8 -16 -24 -24 -23 -17 -8 2 11 12 14 20 30 39 38 34 11 11 15 27 25 24 29 
-19 -24 -16 -1 6 -2 -11 -25 -30 -20 -1 9 10 15 27 36 35 37 38 32 22 7 -30 -56 -64 -78 -81 -77 -73 -62 -50 -15 6 3 5 9 11 11 11 12 5 -11 -24 -61 -88 -97 -110 -105 -104 -107 -98 -94 -83 -61 -38 17 73 85 79 50 36 32 38 37 32 24 17 22 24 24 23 19 24 21 19 7 -8 -36 -42 -46 -28 -17 9 23 17 20 31 33 43 47 47 47 49 50 52 48 44 29 15 2 -12 -22 -21 -18 -13 -7 -1 5 4 8 14 21 29 28 26 9 12 16 26 24 23 26 
-23 -27 -18 -5 0 -9 -18 -30 -36 -26 -9 1 3 7 21 28 27 29 30 25 15 2 -30 -53 -60 -73 -74 -70 -66 -56 -47 -17 3 1 1 4 8 7 7 9 3 -9 -20 -52 -75 -82 -95 -91 -87 -89 -81 -77 -67 -46 -27 23 70 79 69 43 30 26 32 31 27 20 15 21 24 24 25 24 29 29 29 18 3 -23 -29 -39 -24 -14 7 17 12 16 26 29 38 43 42 44 47 49 52 48 46 31 18 6 -7 -18 -16 -15 -9 -5 -1 2 3 6 11 18 25 23 21 8 11 15 23 21 20 22 
-22 -24 -17 -7 -4 -11 -17 -27 -31 -25 -13 -3 -1 3 12 18 19 20 21 18 11 2 -22 -38 -44 -53 -55 -51 -48 -42 -35 -14 1 -1 0 2 5 4 5 7 2 -7 -14 -37 -54 -60 -68 -66 -63 -62 -55 -52 -44 -27 -12 25 58 64 55 32 21 17 20 20 17 12 8 13 17 17 18 20 25 28 29 22 11 -9 -15 -27 -14 -8 5 12 8 10 17 19 26 30 30 31 35 36 40 39 37 26 16 5 -5 -13 -11 -11 -6 -4 -2 0 0 2 7 11 15 15 14 5 8 11 16 15 15 16 
-28 -31 -22 -15 -13 -20 -25 -35 -41 -34 -22 -15 -12 -6 4 9 11 12 13 11 7 0 -19 -31 -37 -43 -44 -43 -41 -36 -31 -15 -5 -7 -5 -2 0 1 2 4 2 -6 -12 -27 -40 -46 -53 -49 -45 -41 -33 -31 -22 -5 7 38 60 63 48 25 15 7 10 9 7 4 2 7 13 14 18 24 32 41 44 39 30 8 0 -15 -8 -4 3 5 1 4 10 11 19 24 23 26 30 34 40 41 40 32 21 10 -1 -10 -8 -6 -3 -3 -3 -3 -3 0 1 4 7 8 7 3 7 9 12 12 10 11 
-27 -28 -22 -16 -14 -22 -27 -34 -39 -34 -25 -18 -14 -8 2 6 7 8 9 7 2 -3 -20 -31 -35 -41 -41 -40 -36 -33 -29 -14 -5 -7 -7 -3 0 0 1 3 2 -5 -10 -22 -32 -38 -45 -41 -38 -33 -26 -24 -17 -3 8 35 52 54 41 21 12 6 8 8 7 5 4 10 14 16 19 26 34 40 44 39 31 10 3 -12 -7 -4 2 4 1 3 9 10 17 21 22 25 30 33 39 40 38 30 21 11 0 -9 -6 -4 -3 -3 -2 -3 -3 -1 0 3 6 7 6 3 7 8 11 10 8 9 
-19 -21 -14 -8 -8 -12 -17 -23 -27 -23 -16 -9 -8 -4 3 6 9 9 10 9 5 1 -11 -20 -23 -27 -29 -28 -27 -24 -21 -10 -2 -3 -3 0 0 1 2 4 1 -4 -8 -19 -28 -32 -37 -33 -32 -27 -23 -20 -14 -4 6 27 41 44 34 17 11 4 6 5 4 2 0 4 7 8 10 15 20 27 30 26 20 5 0 -9 -3 -1 2 3 1 2 6 7 12 15 15 17 19 22 26 27 27 21 14 6 -2 -7 -6 -4 -2 -2 -2 -2 -2 -1 1 3 5 5 4 2 3 6 8 8 7 8 
-12 -14 -8 -4 -3 -5 -8 -13 -17 -14 -8 -4 -3 -1 3 5 7 7 9 9 7 5 -3 -9 -12 -14 -17 -16 -17 -14 -13 -5 0 -1 -1 0 1 2 2 3 1 -3 -6 -14 -20 -23 -27 -24 -23 -19 -15 -13 -8 -1 5 20 31 32 26 13 8 2 2 1 0 -1 -3 -1 1 1 2 6 11 16 19 16 13 2 0 -5 -1 0 2 2 0 1 2 2 7 8 7 8 10 12 15 16 16 13 7 3 -2 -5 -4 -2 -1 -1 -2 -2 -2 -1 0 1 2 2 2 0 1 3 5 5 4 5 
-13 -14 -7 -4 -2 -4 -6 -12 -16 -12 -6 -2 -2 0 3 6 6 8 10 11 9 6 -2 -8 -11 -14 -15 -16 -16 -14 -12 -4 0 -1 -1 0 1 3 2 3 1 -3 -6 -14 -20 -24 -27 -24 -22 -18 -14 -13 -9 -1 4 20 31 31 26 14 8 3 2 1 0 -2 -3 -1 0 0 1 5 9 16 19 15 12 2 -1 -5 -1 1 2 2 0 1 2 2 5 6 6 7 8 10 14 15 15 12 6 2 -2 -5 -4 -2 -1 -1 -2 -2 -2 -1 0 0 2 2 2 0 1 2 5 5 4 4 
-11 -12 -5 -1 0 -1 -3 -7 -11 -9 -3 0 0 0 3 5 7 8 10 11 10 8 0 -3 -4 -8 -10 -11 -12 -11 -9 -3 1 0 0 1 2 3 3 3 1 -2 -5 -12 -18 -21 -23 -21 -19 -16 -12 -9 -5 0 5 18 28 29 24 12 7 1 0 0 -2 -4 -5 -4 -3 -3 -1 0 6 13 14 12 9 1 0 -4 0 1 2 2 0 0 0 0 3 4 3 3 5 5 8 11 11 9 4 1 -3 -5 -4 -2 -1 -1 -2 -2 -2 -1 -1 0 0 0 0 -1 0 2 4 4 4 4 
-11 -12 -5 -2 -1 -2 -4 -8 -11 -9 -4 -1 -1 0 2 4 6 7 8 11 11 10 3 0 -1 -3 -6 -7 -10 -9 -7 -2 0 0 0 0 1 2 2 2 1 -2 -5 -10 -15 -18 -20 -17 -15 -12 -8 -6 -2 3 9 21 27 27 22 10 6 0 -1 -2 -4 -5 -6 -6 -6 -5 -4 0 3 12 15 13 10 3 1 -1 1 1 2 2 0 0 0 0 0 2 1 0 2 3 6 8 9 9 5 1 -2 -4 -3 -2 -1 -1 -2 -2 -2 -1 0 0 0 0 0 -1 0 2 4 4 3 3 
-11 -12 -6 -3 -1 -2 -5 -8 -12 -10 -5 -1 -2 -2 0 2 4 6 7 9 10 8 4 0 0 -3 -6 -7 -9 -8 -7 -2 0 -1 0 0 1 1 2 2 0 -2 -5 -8 -13 -16 -18 -16 -13 -10 -6 -3 0 6 11 21 27 26 20 10 5 0 -2 -4 -6 -7 -7 -7 -6 -6 -4 0 4 13 17 15 12 6 3 0 2 2 2 1 0 0 -1 -1 0 0 1 0 0 2 5 9 10 9 5 2 -1 -4 -3 -2 -1 -1 -2 -3 -3 -2 -1 -1 0 0 0 -1 0 2 4 4 3 3 
-13 -13 -5 -3 -1 -2 -5 -9 -13 -11 -6 -1 -3 -2 0 2 3 6 7 11 12 10 5 2 1 0 -4 -5 -8 -8 -7 -2 0 -1 0 0 1 1 2 2 1 -2 -5 -9 -13 -15 -18 -15 -12 -8 -3 0 2 9 14 24 30 29 22 10 4 -1 -4 -6 -8 -9 -9 -9 -8 -8 -5 0 3 15 19 17 15 8 5 1 3 3 2 1 0 -1 -2 -2 0 -1 0 -1 0 2 4 8 10 9 6 2 -1 -4 -3 -1 -1 -1 -2 -3 -3 -2 -2 -2 -2 -2 -2 -2 0 2 3 4 3 2 
-13 -14 -4 -1 0 1 0 -3 -8 -8 -2 1 0 -1 0 0 4 7 9 14 16 15 12 12 11 9 4 1 -2 -3 -3 -2 0 0 0 0 1 2 2 2 0 -2 -4 -6 -10 -13 -14 -12 -8 -3 2 5 10 16 20 29 32 31 22 11 3 -4 -9 -11 -14 -15 -15 -16 -17 -17 -14 -7 -1 12 17 17 15 10 8 5 7 6 2 0 -2 -3 -6 -6 -6 -6 -7 -8 -8 -6 -2 3 6 7 2 0 -2 -4 -2 0 0 -1 -4 -5 -6 -4 -4 -5 -5 -5 -5 -4 -1 1 2 3 2 1 
-13 -12 -3 0 3 6 4 1 -4 -4 1 5 2 0 -1 0 5 7 10 17 21 22 20 21 22 18 13 9 2 0 0 0 0 0 0 1 1 2 3 2 0 -2 -3 -6 -9 -11 -11 -9 -5 0 6 10 15 20 23 30 32 32 22 10 2 -7 -13 -15 -19 -20 -20 -23 -24 -24 -23 -15 -8 9 14 13 11 9 8 9 11 9 2 -2 -3 -5 -9 -9 -10 -12 -12 -15 -16 -14 -9 -3 0 4 0 0 -2 -3 -1 1 0 -1 -3 -7 -7 -6 -6 -8 -8 -8 -7 -5 -2 0 1 1 1 0 
-16 -17 -6 -2 1 1 0 -4 -10 -10 -3 0 0 -3 -1 0 4 8 10 17 20 20 17 16 16 13 8 4 -1 -3 -3 -1 0 -1 -1 0 1 2 3 3 1 -2 -4 -7 -10 -13 -14 -11 -7 0 6 10 15 22 27 37 38 36 26 11 2 -7 -13 -15 -18 -20 -19 -20 -22 -22 -19 -10 -1 15 22 22 19 14 11 8 10 9 2 -2 -4 -5 -8 -9 -9 -9 -10 -12 -10 -8 -3 2 7 8 3 0 -3 -4 -1 0 0 -1 -4 -7 -7 -6 -7 -8 -8 -8 -7 -5 -2 0 2 2 2 1 
-27 -28 -16 -12 -12 -15 -18 -23 -29 -28 -20 -15 -15 -11 -6 -4 0 2 4 9 10 8 4 0 -1 -3 -5 -8 -11 -12 -11 -7 -6 -7 -7 -5 -3 0 1 1 0 -3 -4 -7 -10 -14 -17 -15 -9 0 6 9 16 25 34 45 47 44 29 10 2 -6 -10 -12 -13 -15 -14 -11 -8 -9 -3 7 18 35 43 43 38 27 20 8 9 7 2 -4 -5 -5 -7 -6 -2 0 -1 0 3 6 13 19 22 22 15 8 1 -3 -1 2 1 -1 -4 -8 -8 -7 -6 -6 -6 -6 -6 -2 0 2 3 4 3 2 
-32 -33 -22 -18 -19 -24 -27 -33 -40 -38 -29 -25 -22 -16 -9 -6 -4 0 0 4 4 3 -3 -6 -9 -10 -12 -13 -15 -15 -14 -11 -10 -11 -10 -8 -4 -2 0 0 0 -3 -3 -5 -9 -12 -15 -13 -8 1 8 11 17 28 37 50 49 46 30 9 0 -7 -10 -11 -11 -12 -10 -8 -3 -1 3 17 28 46 55 53 49 34 25 8 8 6 0 -6 -5 -4 -5 -5 0 2 2 4 10 15 22 28 30 28 20 12 3 -2 -1 2 2 -1 -5 -8 -9 -7 -6 -6 -7 -6 -5 -1 1 4 4 5 2 2 
-32 -32 -23 -20 -22 -28 -31 -36 -42 -40 -33 -28 -25 -20 -12 -10 -7 -5 -3 -1 -1 -2 -7 -9 -11 -12 -12 -13 -13 -14 -13 -12 -11 -12 -13 -9 -6 -3 -1 -1 0 -2 0 0 -2 -6 -8 -6 -1 8 12 16 21 30 37 48 44 39 23 5 -1 -8 -10 -10 -10 -10 -8 -4 0 2 9 22 33 49 57 56 53 38 30 8 7 4 0 -6 -8 -5 -5 -5 0 3 3 7 12 17 24 30 31 29 22 14 5 0 0 2 3 0 -4 -7 -8 -7 -7 -7 -7 -6 -5 -1 1 3 2 3 1 0 
-23 -24 -17 -15 -16 -19 -22 -26 -30 -29 -24 -19 -19 -14 -9 -7 -5 -3 -2 0 0 0 -2 -4 -4 -6 -6 -7 -8 -9 -9 -7 -8 -9 -8 -6 -5 -2 0 0 0 -2 -1 -1 -1 -4 -5 -5 0 6 10 12 17 24 30 37 33 30 18 4 0 -6 -9 -10 -9 -9 -7 -5 -2 0 4 14 21 35 42 42 39 28 22 7 6 4 0 -5 -5 -4 -4 -4 0 1 1 2 7 10 16 20 22 21 15 10 3 0 0 2 1 0 -2 -6 -6 -5 -5 -5 -5 -5 -5 0 0 1 2 2 2 1 
-19 -18 -12 -11 -11 -15 -16 -18 -23 -23 -18 -15 -14 -10 -6 -6 -3 -2 -1 1 2 3 0 0 -1 -2 -3 -5 -5 -6 -6 -5 -6 -6 -6 -5 -2 -1 0 0 0 -1 -1 0 -2 -3 -4 -4 0 5 10 10 15 21 25 30 27 24 14 3 0 -4 -8 -8 -9 -9 -7 -5 -4 -2 1 9 16 27 33 32 30 22 17 6 7 5 0 -4 -4 -4 -5 -4 -2 0 -1 0 2 6 10 15 16 16 12 7 1 -1 0 1 0 0 -2 -4 -5 -5 -4 -5 -5 -5 -4 0 0 1 1 2 1 0 
-14 -14 -9 -8 -8 -11 -12 -15 -16 -16 -13 -11 -10 -8 -6 -4 -3 0 0 2 1 1 1 0 0 -1 -2 -2 -5 -4 -4 -4 -5 -5 -4 -4 -1 0 0 0 0 -1 -1 0 -1 -2 -3 -2 0 4 7 9 12 16 19 23 20 18 10 2 0 -4 -6 -7 -6 -6 -6 -4 -3 -2 0 7 12 21 26 24 23 17 14 5 5 3 1 -2 -3 -2 -4 -3 -2 0 0 0 2 5 8 10 12 11 8 5 1 -1 0 0 1 0 -2 -3 -3 -2 -3 -4 -3 -3 -3 -1 0 1 1 1 0 0 
-7 -8 -5 -4 -4 -5 -7 -8 -9 -8 -8 -5 -5 -4 -1 -1 0 0 0 1 1 2 1 0 0 -1 -1 -1 -2 -3 -2 -1 -1 -1 -1 -1 0 0 0 0 0 0 -1 -1 -1 -2 -2 -3 0 2 3 5 6 10 10 14 12 10 7 2 0 -1 -4 -4 -4 -4 -4 -3 -2 -2 0 3 6 11 14 14 12 9 7 2 3 2 0 -1 -1 -1 -2 -2 -1 0 0 0 0 1 4 6 6 6 4 3 1 0 -1 0 0 0 0 -1 -1 -1 -1 -2 -2 -2 -1 -1 0 0 1 1 1 0 
-7 -7 -5 -4 -4 -5 -6 -8 -10 -8 -7 -5 -5 -4 -2 -2 0 0 0 1 2 3 1 0 0 0 0 -1 -1 -2 -2 -1 -1 -1 -1 -1 0 0 0 0 0 0 -1 -1 0 -1 -2 -1 0 2 4 5 7 9 11 13 11 9 7 2 0 -2 -4 -4 -5 -5 -3 -2 -2 -1 -1 3 5 11 14 14 12 10 7 3 3 2 0 -1 -1 -1 -2 -2 -1 -1 -1 0 0 1 4 4 6 6 4 3 1 -1 -1 0 0 0 0 -1 -1 -1 -2 -2 -2 -2 -1 -1 0 0 1 1 1 0 
-7 -7 -3 -2 -2 -3 -4 -5 -7 -6 -5 -4 -3 -2 -1 -1 0 1 1 3 4 4 3 3 2 2 1 0 -1 -2 -1 0 0 0 -1 0 0 0 0 0 0 0 -1 0 -1 -3 -2 -2 0 2 4 5 7 9 11 13 12 11 8 2 1 -2 -5 -5 -7 -6 -6 -5 -6 -5 -3 0 2 9 11 11 10 7 6 3 4 3 0 -1 0 -1 -2 -3 -3 -2 -2 -2 -2 0 1 3 4 4 3 1 0 -1 -1 0 0 0 -1 -2 -2 -2 -2 -3 -2 -2 -2 -1 0 0 0 1 0 0 
-7 -7 -3 -2 -2 -3 -4 -5 -7 -6 -5 -4 -3 -3 -2 -1 0 1 0 3 4 3 3 4 3 2 2 0 0 -1 -1 0 0 0 -1 0 0 0 0 0 0 0 -1 0 0 -2 -1 -1 0 2 4 6 8 10 12 12 11 10 7 2 0 -2 -5 -6 -6 -7 -5 -5 -5 -4 -3 0 2 9 10 11 11 8 6 4 4 3 0 -1 -1 -1 -3 -3 -3 -3 -3 -2 -2 0 1 2 4 3 2 1 0 -1 -1 0 0 0 -1 -2 -2 -2 -2 -3 -2 -2 -2 -1 0 0 0 1 0 0 
-7 -6 -3 -2 -1 -2 -3 -4 -6 -6 -4 -3 -3 -3 -1 -1 0 2 2 4 5 4 4 4 4 3 1 1 -1 -2 -1 0 0 0 -1 0 0 0 1 1 0 0 -1 -2 -1 -3 -3 -3 -1 1 4 5 7 9 10 13 12 12 8 4 1 -2 -5 -5 -7 -6 -6 -6 -6 -6 -4 -1 2 8 11 12 10 8 6 2 4 3 0 -1 -1 -1 -2 -3 -3 -2 -3 -2 -2 -1 1 3 3 4 3 1 0 -1 -1 0 0 0 -1 -2 -2 -2 -2 -3 -2 -2 -2 -1 0 0 0 1 0 0 
-7 -7 -4 -3 -1 -2 -3 -4 -6 -7 -4 -2 -3 -3 -1 0 0 2 2 4 5 6 5 5 4 4 2 2 0 -1 -2 0 0 -1 -1 -1 0 1 1 1 0 -1 -2 -2 -2 -3 -4 -3 0 2 4 5 8 10 12 15 14 13 9 4 1 -3 -5 -6 -7 -8 -7 -7 -6 -6 -4 -1 1 9 13 12 12 8 7 3 4 3 1 -1 -1 -1 -3 -3 -4 -3 -3 -2 -2 -2 1 3 4 4 3 1 0 -1 0 0 0 0 -1 -3 -3 -2 -2 -3 -3 -3 -2 -2 0 0 0 0 0 0 
-8 -8 -4 -4 -2 -3 -4 -5 -7 -7 -5 -4 -4 -3 -1 -1 0 0 1 4 4 4 4 4 4 3 2 1 0 -1 -1 0 0 -1 -1 -1 0 0 0 0 0 0 -1 0 -1 -2 -3 -1 0 3 5 6 8 12 12 15 14 13 8 2 1 -3 -5 -6 -7 -6 -7 -6 -5 -5 -3 -1 3 10 13 13 12 9 8 4 4 3 0 -1 -1 -1 -3 -3 -3 -3 -2 -3 -1 -1 1 4 4 5 3 2 0 -1 0 0 0 0 -1 -2 -2 -2 -2 -3 -3 -3 -2 -2 0 0 0 0 0 0 
-10 -10 -6 -5 -4 -6 -7 -8 -11 -11 -8 -6 -6 -5 -2 -2 0 0 1 4 4 4 2 3 2 2 0 0 -2 -3 -3 -2 -2 -2 -2 -2 0 0 1 0 0 -1 -1 -2 -2 -3 -3 -3 0 3 6 7 9 13 15 19 17 15 9 4 0 -3 -6 -7 -7 -8 -6 -6 -5 -4 -2 1 6 13 17 17 17 12 9 3 5 4 1 -2 -2 -2 -3 -4 -3 -2 -2 -1 0 0 2 5 7 7 5 3 0 -1 0 0 0 0 -1 -3 -3 -2 -3 -3 -3 -3 -3 -2 0 0 0 0 0 0 
-16 -15 -9 -8 -8 -10 -11 -13 -16 -16 -13 -10 -9 -8 -4 -3 -1 0 1 3 4 5 2 2 1 0 0 -2 -3 -4 -4 -4 -4 -4 -4 -3 -1 0 0 0 0 -1 -2 0 -3 -4 -4 -3 0 5 8 10 12 19 21 27 24 22 14 5 0 -5 -8 -9 -10 -10 -8 -7 -6 -5 -3 5 10 20 26 26 25 18 13 6 6 5 1 -3 -3 -3 -5 -4 -3 -1 -3 -1 0 2 6 9 11 12 8 5 1 -1 0 1 1 0 -2 -4 -4 -3 -3 -5 -5 -5 -4 -1 0 1 1 1 1 0 
-16 -16 -10 -9 -11 -12 -14 -16 -19 -20 -16 -12 -13 -10 -6 -5 -3 -2 -1 1 1 2 1 0 0 -1 -1 -2 -3 -4 -3 -5 -5 -5 -5 -4 -1 -1 0 0 0 -1 0 0 0 -1 -1 -1 2 7 10 11 14 20 23 26 23 19 12 2 0 -5 -8 -8 -8 -8 -7 -5 -3 -3 0 7 13 24 28 28 27 20 16 6 6 4 0 -3 -4 -3 -5 -4 -3 0 -2 0 1 4 8 12 12 13 9 6 2 0 0 1 1 0 -2 -4 -5 -3 -3 -5 -5 -5 -4 -1 0 1 1 1 0 0 
-13 -12 -8 -8 -8 -10 -11 -12 -14 -15 -12 -11 -10 -7 -5 -5 -3 -1 -1 0 1 1 1 1 0 0 0 -1 -1 -3 -2 -3 -4 -4 -4 -3 -2 -1 0 0 0 0 0 1 1 0 0 1 2 6 10 11 12 17 18 20 16 14 7 2 -1 -5 -7 -8 -8 -7 -6 -5 -3 -2 -1 5 10 18 22 23 21 17 13 5 5 3 0 -4 -2 -2 -4 -3 -3 -1 -1 0 0 2 6 9 9 10 8 5 1 0 0 2 1 0 -1 -2 -3 -2 -3 -4 -4 -4 -3 -1 0 0 0 0 0 0 
-1 -1 0 0 0 0 0 0 0 0 0 0 0 0 -1 -1 -1 0 0 1 2 3 4 5 6 6 6 4 3 2 1 0 0 0 0 0 0 0 0 0 0 0 0 1 2 2 2 2 3 5 5 6 6 6 6 5 2 1 0 0 -1 -2 -3 -3 -3 -3 -3 -3 -4 -4 -4 -2 -1 0 0 1 2 3 3 3 2 1 0 -1 -1 -2 -3 -3 -3 -3 -4 -4 -5 -4 -3 -2 -1 0 0 0 0 0 0 1 0 0 0 0 0 0 0 -1 -3 -3 -2 0 -1 0 0 0 0 -1 
8 8 8 8 10 13 14 15 16 15 14 13 11 7 4 3 3 4 4 6 8 9 10 11 12 11 10 9 6 6 6 5 4 4 4 3 2 1 2 0 0 0 0 0 0 0 1 0 0 -2 -1 -2 -3 -5 -7 -9 -6 -5 -2 0 0 0 0 0 -1 -1 -3 -5 -8 -9 -11 -15 -17 -17 -18 -18 -18 -12 -8 0 0 0 1 0 0 0 0 -1 -3 -5 -6 -9 -11 -12 -14 -14 -13 -10 -8 -6 -2 0 0 0 0 0 0 0 0 0 0 0 0 0 0 -1 -2 -1 0 0 0 0 
7 7 7 8 9 12 13 14 14 13 13 12 10 6 3 3 4 3 4 7 8 8 9 10 11 11 8 8 5 5 5 5 3 3 3 2 2 1 1 0 0 0 0 0 0 -1 0 0 0 -1 -2 -2 -2 -5 -6 -8 -5 -3 -1 0 1 0 0 0 -1 -2 -3 -6 -8 -9 -11 -14 -16 -15 -17 -17 -15 -10 -7 0 0 0 1 0 0 0 0 -1 -3 -5 -6 -8 -10 -11 -13 -12 -12 -9 -7 -5 -2 0 0 0 0 0 0 0 0 0 0 0 0 0 0 -1 -2 -1 0 0 0 0 
3 3 3 4 4 6 7 7 7 7 7 6 5 2 1 1 1 1 2 4 4 4 6 6 7 7 5 5 2 2 2 2 1 1 1 0 0 0 0 0 0 0 0 0 0 0 0 0 0 0 0 0 0 0 -1 -1 -1 -1 0 0 0 0 0 0 -1 -1 -2 -4 -5 -6 -7 -7 -9 -7 -7 -7 -7 -4 -2 1 0 0 0 0 0 0 -1 -1 -2 -4 -4 -5 -6 -7 -7 -7 -6 -4 -4 -2 0 0 0 0 0 0 0 0 0 0 0 0 0 0 0 0 -1 0 0 0 0 0 
3 4 3 3 3 4 5 6 5 5 5 4 3 2 1 1 1 1 0 0 1 1 2 2 3 3 2 2 1 0 0 1 1 1 1 0 0 0 0 0 0 0 0 0 0 0 1 1 0 0 0 -1 -1 -2 -2 -3 -3 -2 -2 0 0 0 0 0 0 0 0 0 -1 -2 -3 -4 -5 -6 -7 -6 -6 -4 -2 0 0 0 0 0 0 0 0 0 0 -1 -1 -2 -3 -3 -4 -4 -3 -4 -3 -2 0 0 0 0 0 0 0 0 0 0 0 0 0 0 0 0 0 0 0 0 0 0 
0 0 0 0 1 1 0 0 0 0 0 1 1 0 0 0 0 0 0 1 2 2 3 4 4 3 2 2 0 0 0 0 0 0 0 0 0 0 0 0 0 0 0 0 0 0 0 0 0 1 2 2 2 2 2 2 1 1 0 0 0 0 -2 -2 -2 -2 -2 -3 -3 -3 -4 -3 -1 0 0 0 0 0 0 1 1 1 0 0 0 0 0 0 0 -1 -2 -2 -2 -2 -2 -1 -1 0 0 0 0 0 0 0 0 0 0 0 0 0 -1 -1 0 0 0 0 0 0 0 0 0 0 
-15 -14 -9 -7 -7 -9 -10 -12 -16 -16 -12 -9 -9 -8 -5 -3 -1 0 0 4 5 6 3 3 2 1 0 -1 -2 -4 -4 -3 -4 -4 -4 -3 0 0 0 0 0 -1 -2 -1 -1 -4 -4 -3 0 5 9 10 13 18 22 27 24 21 13 4 0 -6 -8 -9 -11 -10 -8 -7 -6 -7 -3 4 9 20 25 25 24 17 14 7 7 5 1 -2 -3 -3 -5 -5 -3 -2 -3 -1 0 1 5 9 10 12 7 4 1 -1 0 1 1 0 -2 -4 -4 -3 -4 -5 -5 -5 -4 -2 0 1 1 1 1 0 
-18 -17 -10 -8 -7 -10 -11 -14 -18 -18 -13 -9 -9 -7 -5 -4 0 0 2 5 7 7 4 3 2 0 0 -1 -4 -6 -5 -4 -4 -4 -4 -3 -2 0 1 1 0 -2 -3 -2 -4 -6 -8 -6 -2 3 8 10 14 19 24 31 28 27 17 6 0 -5 -9 -11 -11 -12 -10 -9 -8 -7 -4 2 9 23 28 28 26 19 14 6 7 5 2 -3 -3 -3 -5 -5 -3 -2 -3 -2 0 1 6 10 12 13 8 5 0 -2 0 1 0 -1 -2 -4 -5 -4 -4 -5 -5 -5 -5 -2 0 1 2 2 1 0 
-14 -15 -6 -3 -1 -2 -4 -7 -12 -11 -6 -2 -3 -2 0 0 3 6 7 11 12 12 8 6 5 3 0 -2 -5 -7 -5 -2 0 -1 -1 0 1 1 2 2 0 -2 -5 -7 -10 -13 -15 -12 -9 -4 0 3 8 13 19 28 31 30 22 10 4 -3 -7 -9 -11 -12 -12 -12 -11 -11 -9 -2 3 16 20 20 18 11 8 3 6 5 2 0 -1 -2 -4 -4 -3 -3 -4 -4 -3 -1 4 6 8 10 4 2 -1 -4 -2 0 0 -1 -3 -4 -5 -3 -3 -4 -4 -4 -3 -3 0 1 3 3 2 1 
-18 -19 -6 0 3 2 -1 -7 -13 -10 -1 4 3 1 4 8 11 15 17 22 24 21 12 6 4 0 -7 -9 -15 -14 -12 -4 1 0 0 2 3 4 5 5 1 -4 -9 -19 -27 -31 -35 -32 -28 -22 -14 -9 -3 6 15 34 48 49 39 20 10 0 -3 -6 -10 -13 -15 -15 -15 -17 -15 -8 0 15 20 18 12 2 0 -2 4 5 4 2 0 0 0 -1 0 0 0 -2 -2 0 4 9 12 12 5 0 -5 -8 -6 -2 -2 -2 -3 -5 -5 -3 -2 -2 -1 -1 -1 -3 0 3 7 7 6 5 
-14 -16 -4 2 8 8 4 0 -6 -4 4 11 8 5 7 9 14 17 20 26 28 25 14 8 7 0 -6 -8 -15 -14 -12 -2 3 2 2 3 5 5 6 5 1 -4 -9 -22 -30 -34 -39 -35 -32 -27 -20 -15 -8 0 9 30 46 50 40 21 11 1 -2 -4 -9 -12 -15 -16 -19 -19 -18 -14 -6 9 12 9 4 -4 -5 -3 2 4 5 3 1 0 0 0 1 0 -2 -4 -5 -3 0 5 8 8 2 -1 -6 -8 -6 -3 -2 -2 -4 -4 -4 -2 -2 -1 0 0 0 -3 0 4 7 8 7 6 
-10 -11 0 5 9 10 9 3 0 1 8 13 10 7 7 10 13 16 18 24 26 23 16 10 8 4 -1 -4 -10 -9 -8 0 4 3 3 3 5 5 6 4 1 -3 -7 -17 -25 -28 -32 -28 -26 -22 -17 -13 -7 0 6 22 37 39 32 18 10 2 -1 -4 -8 -11 -14 -16 -18 -19 -18 -16 -10 2 4 1 0 -6 -6 -4 2 4 4 4 1 0 0 -1 0 -2 -3 -6 -7 -6 -4 0 2 4 0 -3 -6 -6 -5 -3 -2 -2 -3 -3 -3 -2 -1 -1 0 0 0 -2 0 2 6 6 5 5 
5 5 9 10 14 18 17 18 16 15 16 18 14 9 4 5 7 9 9 15 18 19 19 21 20 20 14 13 7 6 6 6 6 7 6 5 4 3 3 2 0 0 -2 -4 -6 -6 -6 -4 -3 -2 -2 0 1 0 1 1 4 6 7 5 3 0 -4 -6 -8 -10 -12 -15 -19 -20 -22 -22 -22 -16 -15 -16 -14 -11 -7 1 4 4 2 0 1 0 -3 -3 -7 -10 -11 -14 -17 -19 -19 -16 -14 -10 -10 -7 -4 -1 -1 0 0 0 -1 0 -1 0 -2 -2 -2 -2 -2 -3 -3 -1 0 0 0 0 
-5 -5 -1 -1 -1 0 0 0 0 -2 -1 -1 -3 -5 -6 -7 -5 -2 -2 1 5 7 14 17 19 20 18 15 12 9 7 1 -2 -2 -2 -2 -1 0 0 0 0 0 2 8 11 11 13 14 15 20 22 23 24 23 22 16 6 2 -1 -3 -5 -10 -13 -15 -15 -14 -13 -14 -14 -14 -13 -8 -4 5 8 11 12 15 15 13 10 8 0 -6 -5 -7 -10 -11 -12 -13 -13 -14 -14 -12 -10 -6 -3 0 0 0 0 2 2 4 3 0 -2 -4 -5 -4 -5 -7 -10 -10 -9 -4 -3 -2 -3 -3 -2 -4 
-14 -13 -9 -9 -11 -12 -11 -11 -14 -16 -16 -15 -15 -14 -12 -13 -11 -8 -8 -3 0 2 8 13 15 16 16 13 11 8 4 -1 -6 -7 -7 -7 -5 -2 -1 -1 0 0 3 12 17 17 18 19 21 29 31 32 35 34 34 27 11 7 0 -6 -8 -13 -17 -19 -18 -16 -14 -12 -11 -10 -6 1 7 21 27 30 32 31 27 17 14 9 0 -9 -9 -8 -13 -13 -13 -12 -12 -11 -9 -6 -1 1 4 8 7 5 3 3 4 6 4 0 -2 -6 -6 -6 -7 -10 -13 -13 -12 -4 -3 -1 -3 -3 -3 -5 
-22 -21 -13 -13 -14 -15 -15 -17 -20 -23 -21 -18 -18 -17 -15 -15 -12 -9 -6 0 2 6 13 19 19 21 19 15 11 6 4 -2 -8 -9 -9 -8 -5 -2 -1 -1 0 0 3 13 17 16 18 19 23 33 37 40 43 46 46 41 23 17 4 -4 -9 -16 -23 -25 -25 -24 -19 -19 -17 -17 -11 1 11 31 39 42 43 39 34 22 19 13 0 -10 -10 -10 -16 -16 -16 -15 -15 -15 -11 -7 0 5 8 13 10 8 3 3 4 6 5 1 -5 -9 -11 -10 -11 -14 -16 -16 -14 -6 -2 -1 -4 -3 -3 -6 
-18 -17 -3 -3 0 2 2 1 -4 -8 -4 -1 -4 -8 -11 -11 -6 0 2 13 21 26 35 42 43 45 37 32 20 14 12 2 -2 -3 -3 -3 -1 0 0 0 0 0 1 9 13 10 13 15 21 33 39 43 48 51 50 45 30 26 13 0 -7 -20 -30 -34 -35 -37 -34 -37 -38 -40 -35 -21 -10 15 25 28 30 31 29 27 25 19 0 -11 -10 -14 -22 -23 -25 -28 -29 -32 -32 -28 -22 -11 -5 3 0 0 0 1 4 7 5 0 -6 -12 -13 -12 -14 -18 -21 -21 -19 -10 -6 -3 -4 -3 -5 -8 
-17 -16 0 2 7 13 14 12 3 0 5 8 2 -3 -8 -8 0 5 9 26 36 41 49 58 59 60 48 41 26 19 16 6 0 0 0 0 1 2 4 2 0 -1 -1 5 7 5 8 11 19 31 38 44 51 54 54 51 39 35 20 5 -5 -22 -35 -40 -44 -45 -44 -50 -54 -56 -51 -37 -24 7 18 21 23 26 26 30 29 23 3 -11 -10 -16 -25 -28 -32 -36 -39 -44 -45 -43 -35 -21 -14 -1 -4 -3 -3 -1 2 8 5 0 -8 -15 -15 -13 -16 -21 -25 -24 -22 -14 -9 -4 -5 -3 -5 -8 
-13 -11 13 17 28 40 42 40 27 20 29 34 24 5 -5 -6 5 16 25 50 69 75 90 102 105 105 86 73 46 36 32 17 8 8 6 4 6 9 9 7 0 -1 -2 4 5 2 7 13 23 40 50 59 69 70 69 64 49 45 32 11 -4 -30 -53 -61 -69 -73 -72 -84 -93 -98 -94 -77 -61 -11 0 6 10 21 24 42 45 38 7 -12 -12 -22 -40 -44 -53 -62 -68 -77 -82 -80 -72 -51 -38 -18 -21 -15 -12 -2 1 7 5 0 -12 -20 -20 -18 -23 -31 -36 -37 -35 -24 -19 -11 -8 -5 -6 -11 
-13 -12 21 25 39 56 58 56 40 32 40 46 33 10 -3 -5 9 24 33 66 89 97 116 131 137 136 112 95 60 47 42 25 13 12 10 8 9 13 12 9 1 -1 -4 4 8 3 10 18 29 50 63 74 86 87 84 78 59 55 40 15 -4 -37 -68 -78 -89 -92 -92 -109 -121 -127 -122 -102 -81 -20 -4 3 7 23 27 54 58 48 10 -14 -14 -28 -52 -56 -69 -81 -88 -100 -108 -105 -95 -69 -52 -26 -29 -23 -16 -4 1 10 5 -1 -15 -24 -25 -24 -29 -39 -45 -46 -45 -31 -24 -15 -12 -7 -8 -14 
-13 -14 22 28 43 62 63 59 43 34 45 52 38 14 0 -1 14 29 39 74 97 105 121 135 140 136 112 94 58 46 42 26 16 14 12 10 12 15 15 12 2 -2 -7 0 -1 -5 0 8 20 41 56 69 81 84 83 82 68 64 49 21 -1 -37 -67 -78 -90 -95 -96 -113 -126 -132 -129 -108 -86 -22 -6 0 4 17 23 51 57 48 12 -12 -13 -27 -51 -56 -70 -81 -88 -103 -109 -107 -98 -70 -54 -27 -31 -25 -20 -6 0 8 5 -1 -16 -25 -25 -23 -29 -38 -45 -46 -45 -33 -25 -14 -10 -4 -6 -13 
-19 -20 18 26 44 61 60 53 34 29 44 55 39 17 5 6 22 38 49 81 103 108 115 122 126 121 93 76 41 30 29 22 17 14 12 12 14 17 17 14 3 -5 -12 -15 -21 -28 -25 -15 -3 17 35 47 64 71 76 88 86 86 67 32 8 -29 -59 -70 -84 -92 -93 -109 -122 -128 -123 -105 -81 -17 0 3 4 10 14 40 52 45 14 -8 -10 -24 -44 -49 -60 -71 -78 -93 -99 -96 -86 -59 -43 -19 -27 -24 -22 -11 -5 4 1 -4 -16 -25 -25 -21 -26 -34 -39 -40 -39 -30 -21 -10 -4 1 -1 -7 
-32 -34 3 14 29 40 37 26 8 5 24 37 26 10 4 8 22 36 47 75 90 91 88 89 90 81 59 44 16 9 9 11 11 9 6 7 11 15 15 13 2 -7 -15 -24 -35 -45 -45 -36 -22 -1 16 28 47 61 71 96 104 104 81 38 12 -22 -45 -57 -69 -75 -77 -89 -98 -101 -97 -76 -51 9 25 25 21 16 14 29 41 37 12 -5 -8 -18 -34 -37 -42 -49 -56 -67 -70 -64 -53 -29 -15 0 -10 -14 -17 -13 -7 1 0 -4 -15 -23 -23 -20 -22 -27 -31 -32 -30 -24 -15 -3 3 7 3 0 
-39 -41 -5 3 16 22 19 7 -10 -10 8 21 11 2 1 5 19 30 38 62 74 74 69 67 67 59 40 28 5 -1 0 2 4 2 1 3 7 11 12 10 3 -8 -14 -23 -34 -43 -45 -37 -25 -3 13 25 42 58 72 98 106 105 79 35 11 -20 -39 -49 -58 -65 -67 -74 -80 -82 -75 -54 -29 24 40 41 34 25 21 25 35 31 10 -5 -9 -16 -28 -30 -33 -37 -42 -50 -49 -44 -32 -11 1 12 0 -6 -13 -13 -7 2 1 -4 -14 -21 -23 -18 -20 -25 -27 -27 -25 -19 -10 -1 5 7 4 0 
-40 -40 -16 -10 -6 -5 -8 -16 -29 -29 -16 -7 -10 -11 -9 -5 2 10 17 30 37 38 34 34 33 28 18 11 0 -5 -5 -4 -4 -7 -6 -4 0 4 6 4 1 -5 -6 -9 -14 -20 -22 -16 -7 8 22 29 41 54 63 81 78 74 51 19 3 -17 -30 -35 -41 -44 -42 -44 -43 -43 -35 -15 2 42 57 57 52 40 32 22 26 22 5 -8 -10 -13 -20 -22 -21 -20 -23 -24 -21 -15 -5 9 16 23 12 4 -4 -5 -2 3 2 -2 -10 -17 -17 -14 -15 -19 -21 -21 -19 -11 -4 0 2 4 1 0 
-33 -32 -17 -14 -13 -14 -17 -21 -30 -32 -23 -16 -17 -16 -11 -9 -4 0 4 12 16 16 16 16 15 13 8 5 -1 -4 -5 -5 -7 -8 -9 -7 -3 0 1 1 0 -3 -2 0 -2 -6 -6 -4 2 16 24 28 35 45 51 60 53 49 30 8 -2 -15 -22 -25 -28 -27 -25 -24 -23 -22 -15 0 14 40 52 53 49 40 31 18 18 15 2 -9 -9 -11 -15 -15 -12 -11 -12 -13 -8 -3 5 13 18 22 14 8 1 -1 1 4 4 0 -6 -13 -13 -10 -11 -13 -15 -15 -14 -6 -2 1 1 2 0 -1 
-27 -27 -15 -13 -12 -13 -16 -19 -26 -27 -21 -15 -16 -14 -10 -8 -4 -1 1 7 11 11 11 11 11 9 6 4 -1 -4 -4 -5 -7 -8 -8 -6 -3 0 0 0 0 -2 -1 0 0 -2 -3 -1 4 15 21 24 30 37 41 48 41 37 22 6 -2 -11 -18 -20 -22 -22 -19 -17 -16 -16 -10 2 12 35 44 43 43 34 27 15 15 11 1 -7 -8 -8 -12 -12 -10 -9 -9 -8 -6 -1 4 11 16 19 12 8 1 -1 1 4 2 0 -5 -9 -10 -9 -8 -11 -12 -12 -11 -5 -1 1 0 0 0 -1 
-21 -21 -11 -10 -10 -11 -13 -15 -20 -21 -17 -13 -13 -11 -9 -7 -4 -2 0 6 8 8 9 11 10 10 7 4 0 -2 -3 -3 -6 -6 -7 -5 -2 -1 0 0 0 -1 -1 1 2 0 0 1 5 14 18 22 26 32 35 40 32 28 17 3 -2 -10 -16 -17 -18 -18 -16 -16 -14 -13 -8 1 10 28 35 36 34 28 22 13 13 10 1 -6 -7 -6 -11 -10 -8 -8 -9 -8 -5 -2 2 9 12 14 10 6 1 -1 0 3 2 -1 -4 -7 -8 -7 -7 -9 -10 -10 -9 -4 0 0 0 0 0 -1 
-17 -18 -9 -8 -9 -9 -10 -11 -15 -17 -14 -11 -12 -11 -9 -7 -5 -2 -1 4 6 9 11 13 13 13 11 8 4 1 0 -1 -5 -5 -6 -4 -2 0 0 0 0 -1 0 4 5 3 4 5 10 18 22 24 27 31 34 34 26 22 11 1 -4 -11 -16 -18 -19 -18 -16 -15 -14 -14 -9 0 7 23 30 31 32 27 23 14 13 9 1 -6 -6 -7 -11 -12 -11 -11 -10 -9 -8 -5 0 5 8 11 8 4 1 0 1 4 3 0 -3 -7 -8 -6 -7 -10 -11 -10 -9 -4 -2 0 -1 0 -1 -2 
-17 -16 -8 -8 -7 -6 -8 -9 -14 -16 -12 -8 -10 -9 -9 -9 -5 -1 0 4 9 11 13 16 17 16 14 11 7 3 2 0 -4 -5 -5 -4 -3 0 1 0 0 -1 0 4 5 3 4 6 10 19 23 25 29 33 35 34 25 22 11 1 -3 -11 -17 -19 -20 -21 -18 -18 -17 -16 -14 -3 4 21 28 30 30 26 22 14 14 11 1 -7 -6 -7 -12 -13 -13 -13 -13 -13 -11 -8 -2 2 5 9 6 4 0 0 2 4 2 0 -3 -7 -8 -7 -8 -10 -12 -11 -10 -5 -2 -1 -1 -1 -1 -3 
-16 -16 -9 -8 -9 -9 -10 -11 -15 -16 -14 -12 -11 -11 -9 -8 -5 -3 -1 3 5 7 10 12 12 13 10 8 4 2 0 -1 -5 -5 -6 -4 -2 -1 0 0 0 0 0 4 6 5 6 7 10 18 21 24 27 30 32 33 22 19 9 0 -5 -11 -15 -17 -18 -17 -14 -13 -13 -13 -8 0 7 22 29 30 29 26 22 14 13 8 0 -6 -6 -6 -10 -11 -10 -10 -10 -9 -7 -4 0 4 7 11 7 4 2 0 1 4 3 0 -3 -6 -6 -6 -7 -9 -10 -10 -9 -4 -1 0 -1 0 -1 -2 
-17 -17 -9 -8 -9 -8 -10 -11 -15 -17 -14 -10 -11 -11 -9 -8 -5 -2 -1 4 6 7 10 13 12 13 10 8 4 1 0 -1 -5 -5 -5 -4 -2 0 1 0 0 0 0 3 5 4 5 5 9 17 20 23 27 31 33 33 25 21 10 1 -4 -11 -16 -18 -18 -17 -15 -15 -14 -14 -10 -1 7 22 29 30 30 26 22 14 13 9 0 -6 -6 -6 -11 -11 -10 -10 -10 -10 -7 -5 0 4 7 11 8 4 0 0 1 4 3 0 -3 -6 -6 -6 -7 -9 -10 -10 -9 -4 -1 0 -1 0 -1 -2 
